<?xml version="1.0" encoding="UTF-8" standalone="no"?>
<!DOCTYPE svg PUBLIC "-//W3C//DTD SVG 1.1//EN" "http://www.w3.org/Graphics/SVG/1.1/DTD/svg11.dtd">
<svg xmlns="http://www.w3.org/2000/svg" version="1.1" viewBox="0.00 0.00 104.00 76.00">
<g stroke-width="2.00" fill="none" stroke-linecap="butt">
<path stroke="#e61465" vector-effect="non-scaling-stroke" d="
  M 72.16 1.63
  Q 70.10 3.69 68.52 4.14"
/>
<path stroke="#861548" vector-effect="non-scaling-stroke" d="
  M 68.52 4.14
  Q 66.18 2.93 65.27 3.76"
/>
<path stroke="#861548" vector-effect="non-scaling-stroke" d="
  M 63.52 3.21
  Q 63.86 2.70 64.43 2.63
  Q 64.76 2.59 64.48 2.42
  Q 64.28 2.31 64.11 2.41
  A 0.28 0.26 -47.6 0 1 63.89 2.43
  Q 62.89 2.09 63.35 0.59"
/>
<path stroke="#6c0220" vector-effect="non-scaling-stroke" d="
  M 72.45 1.97
  Q 73.96 4.22 76.15 4.77"
/>
<path stroke="#6c0220" vector-effect="non-scaling-stroke" d="
  M 76.15 4.77
  Q 76.59 5.58 76.10 6.43
  Q 75.83 6.91 75.31 7.09
  Q 74.41 7.41 73.83 8.12
  Q 73.47 8.58 72.92 8.38
  Q 72.24 8.13 71.63 8.46
  Q 71.20 8.69 71.52 9.05
  C 73.22 11.00 76.02 8.23 77.11 6.92
  Q 77.44 6.52 77.91 6.72
  L 82.08 8.44"
/>
<path stroke="#6c0220" vector-effect="non-scaling-stroke" d="
  M 84.43 9.97
  Q 88.20 16.92 89.58 25.57"
/>
<path stroke="#6c0220" vector-effect="non-scaling-stroke" d="
  M 89.49 27.63
  Q 88.74 27.47 88.02 27.56
  Q 87.55 27.63 87.18 27.32
  L 79.20 20.73"
/>
<path stroke="#a5012d" vector-effect="non-scaling-stroke" d="
  M 79.20 20.73
  Q 78.82 19.71 77.91 20.00
  Q 77.46 20.14 77.39 20.61
  Q 77.33 21.05 76.90 21.44"
/>
<path stroke="#db5073" vector-effect="non-scaling-stroke" d="
  M 76.90 21.44
  Q 76.57 21.20 76.46 20.93"
/>
<path stroke="#6c0220" vector-effect="non-scaling-stroke" d="
  M 76.46 20.93
  Q 75.89 19.36 74.21 19.63"
/>
<path stroke="#6c0220" vector-effect="non-scaling-stroke" d="
  M 70.67 18.01
  Q 72.81 18.21 70.57 15.52
  Q 70.39 15.31 70.19 15.30
  Q 69.95 15.29 69.73 15.46"
/>
<path stroke="#a5012d" vector-effect="non-scaling-stroke" d="
  M 67.75 14.20
  Q 67.67 14.07 67.72 13.95
  Q 67.79 13.81 67.96 13.81
  L 68.80 13.82
  Q 69.74 13.84 69.00 13.26
  Q 68.45 12.83 67.72 12.79"
/>
<path stroke="#6c0220" vector-effect="non-scaling-stroke" d="
  M 67.72 12.79
  Q 66.32 10.91 64.73 10.62"
/>
<path stroke="#6c0220" vector-effect="non-scaling-stroke" d="
  M 61.16 6.13
  L 62.22 4.69"
/>
<path stroke="#6c0220" vector-effect="non-scaling-stroke" d="
  M 64.21 5.77
  Q 64.20 6.13 64.32 6.47
  Q 64.44 6.77 64.70 6.97
  Q 67.28 8.97 70.46 9.04
  Q 70.99 9.05 71.01 8.52
  Q 71.07 6.82 70.06 6.92"
/>
<path stroke="#6c0220" vector-effect="non-scaling-stroke" d="
  M 67.26 4.67
  Q 69.04 4.60 68.52 4.14"
/>
<path stroke="#6c0220" vector-effect="non-scaling-stroke" d="
  M 76.70 18.73
  L 72.47 11.64
  A 0.01 0.01 0.0 0 0 72.46 11.63
  L 72.36 11.69
  A 4.01 0.80 59.2 0 0 73.73 15.54
  L 73.86 15.77
  A 4.01 0.80 59.2 0 0 76.60 18.80
  L 76.70 18.75
  A 0.01 0.01 0.0 0 0 76.70 18.73"
/>
<path stroke="#6c0220" vector-effect="non-scaling-stroke" d="
  M 35.26 10.63
  L 32.17 11.11
  A 1.16 1.15 -24.2 0 1 31.13 10.72
  L 30.96 10.52
  A 0.24 0.24 0.0 0 1 31.09 10.13
  Q 37.73 8.80 33.69 7.88"
/>
<path stroke="#6c0220" vector-effect="non-scaling-stroke" d="
  M 31.99 8.55
  Q 31.56 8.13 31.96 7.15
  Q 32.15 6.68 31.90 6.25
  Q 30.89 4.55 28.98 5.42"
/>
<path stroke="#880226" vector-effect="non-scaling-stroke" d="
  M 35.3497 3.7725
  A 0.86 0.48 1.5 0 0 34.5026 3.2702
  A 0.86 0.48 1.5 0 0 33.6303 3.7275
  A 0.86 0.48 1.5 0 0 34.4774 4.2298
  A 0.86 0.48 1.5 0 0 35.3497 3.7725"
/>
<path stroke="#880226" vector-effect="non-scaling-stroke" d="
  M 38.13 5.13
  Q 37.83 5.37 37.87 5.72
  A 0.46 0.46 0.0 0 0 38.68 5.95
  L 39.71 4.71
  Q 40.40 3.88 39.33 3.95
  Q 38.16 4.03 38.13 5.13"
/>
<path stroke="#6c0220" vector-effect="non-scaling-stroke" d="
  M 76.99 4.75
  Q 77.64 6.12 79.00 6.19
  Q 79.48 6.21 79.81 6.57
  Q 80.39 7.22 81.09 7.17"
/>
<path stroke="#6c0220" vector-effect="non-scaling-stroke" d="
  M 34.03 13.06
  Q 33.30 11.72 31.41 11.91
  A 1.41 1.36 58.1 0 1 30.50 11.68
  Q 28.59 10.40 27.27 8.64
  A 0.86 0.86 0.0 0 0 26.14 8.43
  L 21.49 11.22
  Q 21.19 11.40 20.95 11.15
  Q 20.84 11.04 20.75 10.88"
/>
<path stroke="#690219" vector-effect="non-scaling-stroke" d="
  M 27.75 6.15
  Q 28.98 7.50 29.21 9.21
  Q 29.28 9.69 29.67 9.99
  Q 30.02 10.26 30.42 10.08
  Q 30.92 9.85 31.02 9.32
  C 31.47 6.88 28.97 6.22 28.98 5.42"
/>
<path stroke="#6c0220" vector-effect="non-scaling-stroke" d="
  M 66.49 6.77
  Q 67.50 7.67 68.49 8.23
  Q 68.81 8.41 69.06 8.35
  Q 69.42 8.25 69.47 7.81"
/>
<path stroke="#6c0220" vector-effect="non-scaling-stroke" d="
  M 32.58 14.77
  Q 32.59 14.65 32.60 14.52
  Q 32.60 14.51 32.58 14.50
  Q 29.55 14.23 27.45 16.44
  Q 24.23 19.81 21.59 23.22
  Q 21.19 23.74 21.09 24.97
  Q 21.05 25.52 20.50 25.56
  L 17.11 25.83"
/>
<path stroke="#e61465" vector-effect="non-scaling-stroke" d="
  M 16.54 24.04
  Q 17.07 23.92 16.80 23.03"
/>
<path stroke="#880226" vector-effect="non-scaling-stroke" d="
  M 16.80 23.03
  Q 16.95 23.44 17.20 23.77
  Q 17.55 24.23 17.71 23.68
  Q 18.39 21.42 17.09 20.06"
/>
<path stroke="#6c0220" vector-effect="non-scaling-stroke" d="
  M 17.80 16.74
  L 18.12 17.35
  Q 18.44 17.96 18.61 17.30
  L 19.77 12.95"
/>
<path stroke="#e61465" vector-effect="non-scaling-stroke" d="
  M 19.77 12.95
  Q 20.42 12.12 20.75 10.88"
/>
<path stroke="#450210" vector-effect="non-scaling-stroke" d="
  M 67.72 12.79
  Q 67.78 12.92 67.82 13.05
  Q 67.91 13.35 67.60 13.40
  Q 67.18 13.46 67.28 13.70"
/>
<path stroke="#861548" vector-effect="non-scaling-stroke" d="
  M 19.77 12.95
  Q 19.16 13.29 18.98 13.16"
/>
<path stroke="#861548" vector-effect="non-scaling-stroke" d="
  M 32.20 15.53
  Q 31.93 15.92 31.43 16.00"
/>
<path stroke="#690219" vector-effect="non-scaling-stroke" d="
  M 31.43 16.00
  Q 31.47 15.61 31.03 15.31
  Q 30.61 15.01 30.21 15.35
  Q 27.30 17.80 24.02 21.77
  Q 23.12 22.87 23.07 24.25"
/>
<path stroke="#861548" vector-effect="non-scaling-stroke" d="
  M 23.07 24.25
  Q 22.97 25.48 22.08 26.35
  A 0.30 0.30 0.0 0 0 22.06 26.75
  L 22.26 26.98
  Q 22.50 27.26 22.77 27.02
  L 24.03 25.90"
/>
<path stroke="#6c0220" vector-effect="non-scaling-stroke" d="
  M 25.61 27.62
  L 17.98 28.10
  Q 15.93 28.23 16.90 30.04
  Q 17.73 31.58 18.13 33.66
  Q 18.22 34.15 18.50 34.56
  L 20.64 37.76"
/>
<path stroke="#861548" vector-effect="non-scaling-stroke" d="
  M 19.22 37.02
  Q 19.17 36.94 19.12 36.86"
/>
<path stroke="#690219" vector-effect="non-scaling-stroke" d="
  M 17.59 33.96
  Q 17.28 32.77 16.46 31.66
  Q 16.17 31.27 16.20 30.78
  Q 16.27 29.42 15.14 28.60"
/>
<path stroke="#e2145e" vector-effect="non-scaling-stroke" d="
  M 31.43 16.00
  Q 30.66 16.76 31.11 18.25"
/>
<path stroke="#690219" vector-effect="non-scaling-stroke" d="
  M 30.58 18.99
  Q 30.65 18.76 30.64 18.54
  Q 30.61 18.00 30.11 18.22
  Q 27.83 19.22 27.65 21.02"
/>
<path stroke="#e2145e" vector-effect="non-scaling-stroke" d="
  M 24.36 24.30
  Q 24.09 23.82 23.50 23.86
  Q 23.26 23.88 23.07 24.25"
/>
<path stroke="#7b5256" vector-effect="non-scaling-stroke" d="
  M 76.46 20.93
  L 75.83 21.28"
/>
<path stroke="#450210" vector-effect="non-scaling-stroke" d="
  M 79.20 20.73
  Q 79.31 23.08 81.03 24.44
  Q 81.39 24.73 81.09 25.09
  Q 80.97 25.22 80.74 25.31"
/>
<path stroke="#b45162" vector-effect="non-scaling-stroke" d="
  M 76.85 21.83
  Q 77.01 21.85 76.90 21.44"
/>
<path stroke="#a1164e" vector-effect="non-scaling-stroke" d="
  M 16.80 23.03
  Q 16.82 22.99 16.84 22.95"
/>
<path stroke="#690219" vector-effect="non-scaling-stroke" d="
  M 49.65 22.05
  Q 49.27 22.38 48.98 22.49"
/>
<path stroke="#690219" vector-effect="non-scaling-stroke" d="
  M 89.66 28.26
  L 89.90 32.42"
/>
<path stroke="#6c0220" vector-effect="non-scaling-stroke" d="
  M 85.17 37.99
  C 87.94 36.14 90.13 32.85 89.15 29.48
  A 0.70 0.70 0.0 0 0 88.44 28.98
  C 85.08 29.15 83.34 27.29 80.50 25.95"
/>
<path stroke="#861548" vector-effect="non-scaling-stroke" d="
  M 53.73 22.58
  Q 52.19 22.24 51.78 22.98"
/>
<path stroke="#e2145e" vector-effect="non-scaling-stroke" d="
  M 51.73 23.92
  Q 52.07 24.85 51.55 25.75
  Q 51.35 26.10 50.94 26.03
  Q 49.11 25.70 47.61 26.37
  Q 46.53 26.85 45.45 26.91
  Q 43.73 27.00 42.04 26.77"
/>
<path stroke="#690219" vector-effect="non-scaling-stroke" d="
  M 42.04 26.77
  Q 42.04 26.63 42.04 26.48"
/>
<path stroke="#a10126" vector-effect="non-scaling-stroke" d="
  M 42.04 26.48
  L 42.49 26.67
  Q 42.95 26.87 42.89 26.37
  Q 42.87 26.21 42.77 26.02"
/>
<path stroke="#6c0220" vector-effect="non-scaling-stroke" d="
  M 58.80 24.28
  Q 58.49 24.63 57.90 24.75"
/>
<path stroke="#861548" vector-effect="non-scaling-stroke" d="
  M 57.90 24.75
  Q 56.80 24.46 56.59 24.03
  Q 55.45 21.73 54.54 24.10
  Q 54.27 24.81 53.92 25.53
  Q 53.56 26.24 53.36 25.48
  Q 53.13 24.66 53.64 24.12
  Q 54.30 23.41 54.01 22.83"
/>
<path stroke="#6c0220" vector-effect="non-scaling-stroke" d="
  M 71.88 29.31
  Q 71.82 30.17 72.12 31.04
  Q 72.28 31.52 72.77 31.67
  Q 73.88 32.01 74.98 31.78"
/>
<path stroke="#e61465" vector-effect="non-scaling-stroke" d="
  M 74.98 31.78
  Q 75.37 31.73 75.72 32.05"
/>
<path stroke="#6c0220" vector-effect="non-scaling-stroke" d="
  M 75.72 32.05
  Q 75.65 32.86 76.03 33.82
  Q 76.26 34.42 75.81 34.88
  Q 75.70 34.99 75.63 35.12
  Q 75.27 35.74 75.99 35.82
  L 77.29 35.96
  Q 78.06 36.04 77.59 36.66
  C 75.17 39.84 74.30 42.79 70.72 45.80"
/>
<path stroke="#e61465" vector-effect="non-scaling-stroke" d="
  M 70.72 45.80
  Q 70.69 44.74 70.00 44.83
  Q 69.44 44.91 68.88 45.07
  Q 68.40 45.20 68.08 44.83
  Q 67.77 44.49 68.11 44.10
  Q 68.68 43.44 69.43 43.87
  A 0.45 0.45 0.0 0 0 70.10 43.48
  Q 70.25 36.96 70.23 30.64
  Q 70.22 30.20 69.98 29.84
  Q 69.64 29.32 69.07 29.63
  Q 68.52 29.91 68.31 29.34
  Q 67.82 28.00 66.40 27.31"
/>
<path stroke="#6c0220" vector-effect="non-scaling-stroke" d="
  M 66.40 27.31
  Q 66.64 27.32 66.84 27.30
  Q 67.55 27.25 67.03 26.76
  Q 66.86 26.61 66.66 26.47
  Q 66.54 26.39 66.39 26.43
  Q 64.93 26.80 64.39 25.20
  A 1.14 1.14 0.0 0 0 62.42 24.85
  Q 61.39 26.15 59.56 25.69"
/>
<path stroke="#e61465" vector-effect="non-scaling-stroke" d="
  M 59.56 25.69
  Q 58.75 25.45 57.90 24.75"
/>
<path stroke="#861548" vector-effect="non-scaling-stroke" d="
  M 59.56 25.69
  L 61.73 26.60
  Q 62.26 26.83 62.70 26.47
  Q 63.40 25.91 64.04 26.45
  Q 64.42 26.77 64.90 26.90
  L 66.40 27.31"
/>
<path stroke="#861548" vector-effect="non-scaling-stroke" d="
  M 70.72 45.80
  L 70.00 47.14"
/>
<path stroke="#be1455" vector-effect="non-scaling-stroke" d="
  M 70.00 47.14
  C 67.56 48.33 65.22 49.67 62.56 50.23
  Q 59.84 50.80 57.65 52.53
  Q 57.12 52.95 56.44 52.96
  L 48.74 53.00
  A 2.03 2.02 -25.9 0 1 47.49 52.57
  Q 42.41 48.55 35.74 48.02"
/>
<path stroke="#e2145e" vector-effect="non-scaling-stroke" d="
  M 35.74 48.02
  Q 34.67 46.41 35.55 45.01
  Q 37.23 42.35 36.10 42.04"
/>
<path stroke="#e61465" vector-effect="non-scaling-stroke" d="
  M 36.10 42.04
  L 35.55 30.78
  Q 35.52 30.27 35.92 29.96
  L 37.09 29.05"
/>
<path stroke="#e2145e" vector-effect="non-scaling-stroke" d="
  M 37.09 29.05
  Q 38.97 29.12 39.75 28.87
  Q 40.42 28.66 40.01 27.43"
/>
<path stroke="#861548" vector-effect="non-scaling-stroke" d="
  M 40.01 27.43
  Q 40.81 26.68 42.04 26.77"
/>
<path stroke="#e61465" vector-effect="non-scaling-stroke" d="
  M 42.92 31.20
  Q 43.38 31.47 43.38 30.94
  L 43.38 30.28
  A 0.48 0.48 0.0 0 0 42.66 29.86
  Q 42.44 29.98 42.32 30.22
  Q 42.19 30.47 42.36 30.70
  Q 42.57 31.00 42.92 31.20"
/>
<path stroke="#e2145e" vector-effect="non-scaling-stroke" d="
  M 55.82 30.39
  A 4.39 0.61 0.0 0 0 51.43 29.78
  A 4.39 0.61 0.0 0 0 47.04 30.39
  A 4.39 0.61 0.0 0 0 51.43 31.00
  A 4.39 0.61 0.0 0 0 55.82 30.39"
/>
<path stroke="#e61465" vector-effect="non-scaling-stroke" d="
  M 61.35 32.65
  Q 62.00 33.14 62.65 32.72
  Q 63.55 32.14 62.48 32.12
  Q 60.22 32.08 58.12 30.79
  Q 58.05 30.75 57.99 30.81
  Q 56.98 31.96 58.50 31.84
  Q 60.11 31.72 61.35 32.65"
/>
<path stroke="#e61465" vector-effect="non-scaling-stroke" d="
  M 61.5168 36.1597
  A 1.28 0.46 88.8 0 0 61.9499 34.8704
  A 1.28 0.46 88.8 0 0 61.4632 33.6003
  A 1.28 0.46 88.8 0 0 61.0301 34.8896
  A 1.28 0.46 88.8 0 0 61.5168 36.1597"
/>
<path stroke="#e61465" vector-effect="non-scaling-stroke" d="
  M 61.5039 38.3895
  A 0.68 0.45 92.2 0 0 61.9797 37.7273
  A 0.68 0.45 92.2 0 0 61.5561 37.0305
  A 0.68 0.45 92.2 0 0 61.0803 37.6927
  A 0.68 0.45 92.2 0 0 61.5039 38.3895"
/>
<path stroke="#e61465" vector-effect="non-scaling-stroke" d="
  M 39.23 43.45
  Q 39.02 43.19 38.70 43.10
  A 0.38 0.38 0.0 0 0 38.31 43.70
  L 39.82 45.58
  Q 40.15 45.99 40.62 45.77
  Q 41.32 45.45 41.61 44.82
  Q 41.88 44.23 41.24 44.25
  C 40.53 44.28 39.68 44.02 39.23 43.45"
/>
<path stroke="#e61465" vector-effect="non-scaling-stroke" d="
  M 64.00 44.23
  Q 63.05 43.39 62.07 43.73
  A 0.51 0.51 0.0 0 0 62.11 44.71
  Q 62.99 44.94 63.83 44.81
  A 0.33 0.33 0.0 0 0 64.00 44.23"
/>
<path stroke="#e61465" vector-effect="non-scaling-stroke" d="
  M 43.06 46.29
  Q 43.21 47.73 44.44 47.98
  Q 45.46 48.18 44.78 47.39
  L 43.62 46.05
  Q 42.95 45.29 43.06 46.29"
/>
<path stroke="#e2145e" vector-effect="non-scaling-stroke" d="
  M 57.1314 48.4430
  A 0.37 0.37 0.0 0 0 56.7647 48.0698
  L 49.9449 48.0103
  A 0.37 0.37 0.0 0 0 49.5717 48.3770
  L 49.5686 48.7370
  A 0.37 0.37 0.0 0 0 49.9353 49.1102
  L 56.7551 49.1697
  A 0.37 0.37 0.0 0 0 57.1283 48.8030
  L 57.1314 48.4430"
/>
<path stroke="#450210" vector-effect="non-scaling-stroke" d="
  M 42.04 26.48
  L 39.54 26.40"
/>
<path stroke="#6c0220" vector-effect="non-scaling-stroke" d="
  M 81.08 39.50
  Q 81.21 39.17 80.97 39.04"
/>
<path stroke="#6c0220" vector-effect="non-scaling-stroke" d="
  M 80.97 39.04
  Q 82.12 38.58 82.47 37.70
  Q 82.68 37.16 82.18 36.85
  C 79.24 35.08 80.87 32.54 80.26 29.97
  Q 79.90 28.41 79.23 27.02"
/>
<path stroke="#690219" vector-effect="non-scaling-stroke" d="
  M 40.01 27.43
  Q 39.59 27.54 39.29 27.46
  Q 38.87 27.36 39.07 26.98
  Q 39.20 26.73 39.19 26.47"
/>
<path stroke="#c90036" vector-effect="non-scaling-stroke" d="
  M 37.09 29.05
  Q 36.35 28.90 36.03 28.66"
/>
<path stroke="#db5073" vector-effect="non-scaling-stroke" d="
  M 29.15 31.65
  Q 29.34 31.91 29.72 31.99"
/>
<path stroke="#6c0220" vector-effect="non-scaling-stroke" d="
  M 29.72 31.99
  Q 28.83 33.26 27.26 33.93
  Q 26.69 34.17 26.37 33.65
  Q 25.72 32.56 25.82 31.06
  Q 25.89 30.12 25.55 31.00
  Q 25.48 31.20 25.33 31.35
  Q 25.03 31.67 25.02 32.10
  C 24.90 34.86 26.05 38.13 21.68 38.23"
/>
<path stroke="#6c0220" vector-effect="non-scaling-stroke" d="
  M 80.97 39.04
  Q 81.39 37.62 80.53 37.12
  Q 80.07 36.86 79.62 37.14
  Q 76.82 38.86 77.84 41.46"
/>
<path stroke="#6c0220" vector-effect="non-scaling-stroke" d="
  M 75.98 44.79
  Q 74.54 45.53 74.93 47.00
  Q 75.02 47.34 74.73 47.53
  Q 74.58 47.62 74.42 47.63
  Q 73.96 47.64 73.99 47.18
  L 74.04 46.43
  Q 74.08 45.77 73.42 45.83
  Q 73.04 45.87 72.74 46.08
  Q 72.34 46.37 72.27 46.86
  Q 72.16 47.53 71.72 47.64"
/>
<path stroke="#450210" vector-effect="non-scaling-stroke" d="
  M 71.72 47.64
  Q 70.97 47.47 70.60 47.87
  Q 70.27 48.22 70.08 47.77
  Q 69.99 47.56 70.00 47.14"
/>
<path stroke="#861548" vector-effect="non-scaling-stroke" d="
  M 75.72 32.05
  Q 76.17 31.92 76.27 31.75"
/>
<path stroke="#690219" vector-effect="non-scaling-stroke" d="
  M 77.30 31.36
  Q 78.23 32.63 77.71 34.30
  Q 77.46 35.11 78.19 35.26
  A 0.51 0.51 0.0 0 0 78.79 34.86
  Q 79.29 32.29 77.73 29.14"
/>
<path stroke="#6c0220" vector-effect="non-scaling-stroke" d="
  M 35.21 28.93
  Q 35.41 30.51 34.81 31.30
  A 1.08 1.08 0.0 0 1 33.86 31.72
  C 30.49 31.41 30.31 35.48 27.48 34.64
  Q 26.57 34.37 27.06 35.18
  L 32.10 43.48"
/>
<path stroke="#690219" vector-effect="non-scaling-stroke" d="
  M 32.10 43.48
  Q 33.63 45.53 35.05 47.72
  Q 35.34 48.16 35.74 48.02"
/>
<path stroke="#450210" vector-effect="non-scaling-stroke" d="
  M 35.74 48.02
  L 35.63 48.85
  Q 35.57 49.29 35.19 49.07
  Q 35.02 48.97 34.92 48.73"
/>
<path stroke="#7b5256" vector-effect="non-scaling-stroke" d="
  M 31.18 47.92
  Q 30.89 47.41 30.57 47.42"
/>
<path stroke="#6c0220" vector-effect="non-scaling-stroke" d="
  M 30.57 47.42
  Q 30.50 46.97 30.57 46.56
  Q 30.66 46.03 30.82 46.54
  Q 30.86 46.69 31.04 46.65
  Q 31.52 46.56 31.28 46.13
  Q 30.31 44.33 29.10 43.78"
/>
<path stroke="#690219" vector-effect="non-scaling-stroke" d="
  M 28.30 42.20
  L 27.53 41.76
  Q 27.07 41.50 27.20 40.98
  Q 27.59 39.40 25.93 38.44
  Q 25.46 38.17 25.10 38.58
  Q 24.86 38.86 24.81 39.21"
/>
<path stroke="#7b5256" vector-effect="non-scaling-stroke" d="
  M 29.72 31.99
  Q 30.19 31.24 30.96 30.73"
/>
<path stroke="#c90036" vector-effect="non-scaling-stroke" d="
  M 36.10 42.04
  L 34.49 42.37"
/>
<path stroke="#6c0220" vector-effect="non-scaling-stroke" d="
  M 34.49 42.37
  Q 33.29 41.82 32.28 42.24
  Q 31.84 42.42 32.09 42.83
  Q 32.18 42.99 32.44 43.06"
/>
<path stroke="#c90036" vector-effect="non-scaling-stroke" d="
  M 32.44 43.06
  Q 32.59 43.13 32.10 43.48"
/>
<path stroke="#880226" vector-effect="non-scaling-stroke" d="
  M 33.0847 36.8969
  A 1.47 0.41 37.6 0 0 32.1702 35.6752
  A 1.47 0.41 37.6 0 0 30.7553 35.1031
  A 1.47 0.41 37.6 0 0 31.6698 36.3248
  A 1.47 0.41 37.6 0 0 33.0847 36.8969"
/>
<path stroke="#a1164e" vector-effect="non-scaling-stroke" d="
  M 9.29 30.72
  Q 8.97 30.72 8.92 30.96"
/>
<path stroke="#270308" vector-effect="non-scaling-stroke" d="
  M 8.92 30.96
  Q 8.56 31.24 8.26 31.03"
/>
<path stroke="#a1164e" vector-effect="non-scaling-stroke" d="
  M 95.68 32.20
  Q 95.45 32.20 95.22 31.93"
/>
<path stroke="#861548" vector-effect="non-scaling-stroke" d="
  M 74.54 31.03
  Q 74.59 31.58 74.98 31.78"
/>
<path stroke="#e2145e" vector-effect="non-scaling-stroke" d="
  M 10.28 32.90
  Q 9.98 32.88 9.76 33.11"
/>
<path stroke="#a1164e" vector-effect="non-scaling-stroke" d="
  M 9.76 33.11
  Q 9.13 32.74 8.62 34.26"
/>
<path stroke="#861548" vector-effect="non-scaling-stroke" d="
  M 8.28 32.30
  Q 8.50 32.45 8.72 32.27
  Q 8.87 32.16 8.92 31.93
  Q 9.02 31.45 8.92 30.96"
/>
<path stroke="#84021f" vector-effect="non-scaling-stroke" d="
  M 95.36 35.72
  Q 95.24 35.46 94.94 35.40"
/>
<path stroke="#270308" vector-effect="non-scaling-stroke" d="
  M 94.94 35.40
  Q 95.07 33.85 94.54 33.76"
/>
<path stroke="#84021f" vector-effect="non-scaling-stroke" d="
  M 9.76 33.11
  Q 9.80 33.31 9.92 33.50
  Q 10.12 33.81 9.95 34.14
  Q 9.48 35.05 8.54 34.82"
/>
<path stroke="#690219" vector-effect="non-scaling-stroke" d="
  M 13.69 37.84
  Q 14.27 38.07 14.15 38.47
  Q 14.09 38.67 13.73 38.92
  Q 12.41 39.85 12.52 40.97"
/>
<path stroke="#d8506c" vector-effect="non-scaling-stroke" d="
  M 8.91 38.92
  Q 9.23 37.27 8.08 36.82"
/>
<path stroke="#690219" vector-effect="non-scaling-stroke" d="
  M 94.94 35.40
  Q 93.52 36.20 92.98 35.55"
/>
<path stroke="#690219" vector-effect="non-scaling-stroke" d="
  M 95.17 39.48
  L 95.10 39.23
  Q 94.99 38.85 94.64 39.03
  Q 94.08 39.32 93.78 39.89
  Q 93.71 40.02 93.73 40.17
  Q 93.79 40.47 94.03 40.34"
/>
<path stroke="#e2145e" vector-effect="non-scaling-stroke" d="
  M 92.24 41.29
  Q 92.17 41.15 92.08 41.06
  Q 91.84 40.79 91.53 40.98
  Q 90.73 41.48 91.09 42.82"
/>
<path stroke="#690219" vector-effect="non-scaling-stroke" d="
  M 89.05 43.55
  Q 87.72 43.57 85.82 45.03
  A 1.49 1.45 27.9 0 1 84.79 45.33
  Q 83.89 45.26 83.84 44.39
  Q 83.80 43.77 84.22 43.32
  L 88.37 38.88"
/>
<path stroke="#e2145e" vector-effect="non-scaling-stroke" d="
  M 17.68 38.72
  Q 17.16 38.38 17.06 38.13"
/>
<path stroke="#6c0220" vector-effect="non-scaling-stroke" d="
  M 80.97 39.04
  Q 79.78 39.40 78.79 40.35
  Q 78.60 40.53 79.26 40.70"
/>
<path stroke="#690219" vector-effect="non-scaling-stroke" d="
  M 14.70 37.96
  L 13.82 40.16
  A 1.21 1.20 -62.4 0 0 14.27 41.62
  Q 15.73 42.60 15.17 43.14"
/>
<path stroke="#690219" vector-effect="non-scaling-stroke" d="
  M 19.80 41.51
  Q 18.69 41.02 19.84 42.84
  Q 20.10 43.26 19.81 43.65
  L 18.67 45.18"
/>
<path stroke="#84021f" vector-effect="non-scaling-stroke" d="
  M 16.82 44.17
  Q 17.10 43.44 15.99 42.92
  Q 15.67 42.77 15.17 43.14"
/>
<path stroke="#6c0220" vector-effect="non-scaling-stroke" d="
  M 84.31 47.14
  Q 84.32 46.77 83.50 46.00
  Q 82.64 45.18 82.91 43.51"
/>
<path stroke="#6c0220" vector-effect="non-scaling-stroke" d="
  M 22.10 42.86
  Q 21.54 43.67 21.15 44.11
  Q 20.41 44.93 20.76 45.53
  Q 21.02 45.98 21.54 45.96
  Q 23.75 45.89 23.88 47.00"
/>
<path stroke="#7b5256" vector-effect="non-scaling-stroke" d="
  M 19.79 46.93
  Q 19.98 46.64 19.69 46.29
  Q 19.37 45.92 19.05 46.02"
/>
<path stroke="#690219" vector-effect="non-scaling-stroke" d="
  M 34.49 42.37
  Q 34.38 43.01 32.44 43.06"
/>
<path stroke="#db5073" vector-effect="non-scaling-stroke" d="
  M 30.57 47.42
  L 30.00 47.49"
/>
<path stroke="#6c0220" vector-effect="non-scaling-stroke" d="
  M 27.47 47.14
  Q 26.49 46.71 25.78 47.08"
/>
<path stroke="#c90036" vector-effect="non-scaling-stroke" d="
  M 84.25 47.76
  Q 84.04 48.03 84.20 48.20"
/>
<path stroke="#6c0220" vector-effect="non-scaling-stroke" d="
  M 84.20 48.20
  Q 83.07 48.18 83.03 48.76
  Q 82.92 50.60 83.48 52.71"
/>
<path stroke="#c90036" vector-effect="non-scaling-stroke" d="
  M 83.48 52.71
  L 84.84 52.69"
/>
<path stroke="#c90036" vector-effect="non-scaling-stroke" d="
  M 86.00 54.82
  Q 84.69 54.62 83.77 53.31
  Q 83.51 52.94 83.31 53.34
  Q 82.88 54.22 82.05 54.42"
/>
<path stroke="#6c0220" vector-effect="non-scaling-stroke" d="
  M 82.05 54.42
  C 81.48 51.21 77.31 52.09 75.00 52.04
  Q 74.83 52.03 74.83 52.21
  L 74.85 52.51
  Q 74.86 52.81 75.15 52.81
  L 79.96 52.86
  Q 80.57 52.87 80.70 53.47
  Q 80.99 54.84 79.36 56.90"
/>
<path stroke="#6c0220" vector-effect="non-scaling-stroke" d="
  M 77.31 57.23
  Q 76.65 56.05 75.25 56.08
  Q 72.45 56.13 69.73 56.00"
/>
<path stroke="#e61465" vector-effect="non-scaling-stroke" d="
  M 69.73 56.00
  Q 70.58 54.73 70.00 53.10"
/>
<path stroke="#a5012d" vector-effect="non-scaling-stroke" d="
  M 70.00 53.10
  L 73.20 52.78
  Q 73.37 52.76 73.36 52.60
  L 73.34 52.27
  Q 73.33 52.14 73.20 52.14
  L 65.82 51.97
  A 0.99 0.99 0.0 0 0 64.85 53.26
  Q 65.19 54.32 64.24 55.05
  A 1.29 1.29 0.0 0 1 62.57 54.97
  Q 61.60 54.06 60.40 53.85
  Q 59.93 53.77 60.09 53.31
  Q 60.56 51.94 62.37 51.85
  A 0.57 0.54 71.2 0 1 62.87 52.11
  Q 63.03 52.36 63.29 52.40
  A 1.01 1.00 22.1 0 0 64.27 51.99
  Q 65.40 50.43 67.60 50.39
  Q 68.15 50.38 68.60 50.05
  L 70.31 48.81"
/>
<path stroke="#a5012d" vector-effect="non-scaling-stroke" d="
  M 71.77 48.22
  Q 71.95 47.55 71.72 47.64"
/>
<path stroke="#880226" vector-effect="non-scaling-stroke" d="
  M 81.15 47.88
  Q 81.73 48.18 82.36 47.99
  A 0.45 0.45 0.0 0 0 82.40 47.14
  Q 81.75 46.90 81.17 47.16
  A 0.40 0.40 0.0 0 0 81.15 47.88"
/>
<path stroke="#6c0220" vector-effect="non-scaling-stroke" d="
  M 77.85 48.80
  Q 79.17 49.19 79.87 48.63
  Q 80.35 48.25 79.77 48.04
  Q 78.84 47.69 77.78 48.29"
/>
<path stroke="#6c0220" vector-effect="non-scaling-stroke" d="
  M 26.96 47.95
  L 25.74 47.81"
/>
<path stroke="#be1455" vector-effect="non-scaling-stroke" d="
  M 70.00 53.10
  L 66.62 53.20
  Q 66.09 53.22 66.10 53.75
  Q 66.16 55.68 64.37 56.74"
/>
<path stroke="#be1455" vector-effect="non-scaling-stroke" d="
  M 58.81 54.09
  Q 57.43 53.90 56.48 54.21"
/>
<path stroke="#be1455" vector-effect="non-scaling-stroke" d="
  M 47.49 54.27
  Q 46.75 53.51 45.73 54.43"
/>
<path stroke="#be1455" vector-effect="non-scaling-stroke" d="
  M 40.72 57.16
  Q 41.08 55.38 40.84 53.71
  Q 40.76 53.18 40.23 53.16
  L 36.27 53.06"
/>
<path stroke="#a5012d" vector-effect="non-scaling-stroke" d="
  M 36.27 53.06
  Q 35.89 53.04 35.69 52.92
  Q 35.00 52.51 35.84 52.21
  Q 36.24 52.06 36.97 52.08"
/>
<path stroke="#be1455" vector-effect="non-scaling-stroke" d="
  M 36.97 52.08
  Q 38.64 52.31 39.51 51.62
  Q 39.94 51.28 39.61 50.85
  Q 38.47 49.37 36.24 49.91"
/>
<path stroke="#a5012d" vector-effect="non-scaling-stroke" d="
  M 36.24 49.91
  Q 35.18 49.46 34.00 49.59
  Q 33.35 49.66 33.19 49.01"
/>
<path stroke="#be1455" vector-effect="non-scaling-stroke" d="
  M 43.47 54.96
  L 44.60 53.96
  Q 45.03 53.58 44.66 53.13
  Q 43.44 51.64 42.11 50.79
  Q 41.56 50.43 40.95 50.69
  Q 40.48 50.89 40.83 51.26
  Q 42.28 52.77 42.09 55.38
  Q 42.03 56.24 42.78 55.81
  Q 43.03 55.66 43.15 55.40
  Q 43.26 55.14 43.47 54.96"
/>
<path stroke="#db5073" vector-effect="non-scaling-stroke" d="
  M 31.58 49.01
  Q 31.79 49.72 31.25 49.71
  Q 30.08 49.69 29.74 48.79"
/>
<path stroke="#e61465" vector-effect="non-scaling-stroke" d="
  M 36.24 49.91
  L 36.20 50.98"
/>
<path stroke="#c90036" vector-effect="non-scaling-stroke" d="
  M 36.20 50.98
  Q 35.48 50.52 35.11 50.95
  A 0.72 0.72 0.0 0 0 35.55 52.13
  Q 36.17 52.21 36.39 51.78"
/>
<path stroke="#e61465" vector-effect="non-scaling-stroke" d="
  M 36.39 51.78
  Q 36.66 51.99 36.97 52.08"
/>
<path stroke="#e61465" vector-effect="non-scaling-stroke" d="
  M 36.27 53.06
  Q 35.14 53.78 36.01 55.98"
/>
<path stroke="#880226" vector-effect="non-scaling-stroke" d="
  M 36.01 55.98
  Q 32.93 56.07 29.75 56.22
  Q 29.12 56.25 27.77 57.05"
/>
<path stroke="#6c0220" vector-effect="non-scaling-stroke" d="
  M 24.50 57.29
  Q 21.75 56.62 19.15 58.38
  Q 17.76 59.32 18.25 60.54"
/>
<path stroke="#6c0220" vector-effect="non-scaling-stroke" d="
  M 18.03 60.93
  Q 17.08 60.66 16.28 61.11
  Q 15.71 61.43 15.34 62.42
  Q 14.91 63.57 14.35 64.77"
/>
<path stroke="#6c0220" vector-effect="non-scaling-stroke" d="
  M 11.05 66.92
  Q 10.11 65.26 9.05 65.69"
/>
<path stroke="#880226" vector-effect="non-scaling-stroke" d="
  M 10.77 60.79
  Q 11.32 61.04 12.92 59.40
  A 0.29 0.29 0.0 0 1 13.32 59.38
  Q 13.70 59.73 14.19 59.79
  Q 15.16 59.91 14.58 59.11
  Q 14.00 58.31 14.04 57.24"
/>
<path stroke="#880226" vector-effect="non-scaling-stroke" d="
  M 16.23 56.55
  Q 18.17 56.79 19.97 55.89
  Q 20.64 55.56 19.93 55.32
  L 19.48 55.16"
/>
<path stroke="#e61465" vector-effect="non-scaling-stroke" d="
  M 21.75 53.92
  L 22.26 54.06"
/>
<path stroke="#a5012d" vector-effect="non-scaling-stroke" d="
  M 22.26 54.06
  Q 21.62 54.14 21.73 54.57
  A 0.25 0.24 -5.8 0 0 21.97 54.76
  Q 23.04 54.74 23.96 55.20
  Q 24.50 55.47 24.77 54.94
  Q 25.50 53.48 24.02 53.11"
/>
<path stroke="#e61465" vector-effect="non-scaling-stroke" d="
  M 24.02 53.11
  Q 23.42 52.78 22.69 52.72"
/>
<path stroke="#6c0220" vector-effect="non-scaling-stroke" d="
  M 22.69 52.72
  L 22.70 49.97
  Q 22.70 49.42 22.15 49.35
  Q 21.67 49.28 21.45 49.69"
/>
<path stroke="#c90036" vector-effect="non-scaling-stroke" d="
  M 21.45 49.69
  Q 21.31 49.71 21.14 49.69
  Q 20.81 49.64 20.93 49.33
  L 21.08 48.89"
/>
<path stroke="#e61465" vector-effect="non-scaling-stroke" d="
  M 21.08 48.89
  Q 21.13 48.98 21.17 49.06"
/>
<path stroke="#6c0220" vector-effect="non-scaling-stroke" d="
  M 31.6789 52.5713
  A 2.91 0.38 1.6 0 0 28.7806 52.1101
  A 2.91 0.38 1.6 0 0 25.8611 52.4087
  A 2.91 0.38 1.6 0 0 28.7594 52.8699
  A 2.91 0.38 1.6 0 0 31.6789 52.5713"
/>
<path stroke="#690219" vector-effect="non-scaling-stroke" d="
  M 85.25 47.97
  Q 85.18 48.20 85.10 48.36
  Q 84.93 48.70 85.30 48.79
  L 91.47 50.41
  Q 91.73 50.48 91.89 50.71
  Q 92.54 51.63 91.86 52.84
  A 1.35 1.34 -61.7 0 1 90.05 53.39
  Q 88.89 52.79 87.92 53.98"
/>
<path stroke="#690219" vector-effect="non-scaling-stroke" d="
  M 83.48 52.71
  L 84.20 48.20"
/>
<path stroke="#97525b" vector-effect="non-scaling-stroke" d="
  M 2.02 48.79
  Q 1.39 48.93 0.99 49.25"
/>
<path stroke="#690219" vector-effect="non-scaling-stroke" d="
  M 96.62 50.93
  Q 97.05 52.24 93.51 52.15
  Q 92.74 52.13 93.28 52.69
  Q 93.45 52.86 93.68 52.89
  A 0.53 0.52 11.5 0 1 94.12 53.55
  Q 94.04 53.82 93.73 54.13"
/>
<path stroke="#861548" vector-effect="non-scaling-stroke" d="
  M 93.73 54.13
  Q 92.61 53.98 91.80 54.21"
/>
<path stroke="#6c0220" vector-effect="non-scaling-stroke" d="
  M 91.02 54.51
  Q 91.07 54.32 91.05 54.18
  A 0.34 0.33 75.6 0 0 90.62 53.92
  Q 89.83 54.18 89.05 54.13"
/>
<path stroke="#e2145e" vector-effect="non-scaling-stroke" d="
  M 21.08 48.89
  Q 20.09 49.21 19.00 48.67"
/>
<path stroke="#84021f" vector-effect="non-scaling-stroke" d="
  M 6.09 50.42
  L 4.51 51.92"
/>
<path stroke="#690219" vector-effect="non-scaling-stroke" d="
  M 21.45 49.69
  Q 21.81 50.24 21.77 50.81
  A 0.91 0.90 -11.1 0 1 21.27 51.55
  L 18.70 52.85"
/>
<path stroke="#84021f" vector-effect="non-scaling-stroke" d="
  M 18.20 55.08
  Q 18.28 55.64 17.75 56.01
  Q 17.39 56.27 16.91 55.75"
/>
<path stroke="#690219" vector-effect="non-scaling-stroke" d="
  M 15.52 54.45
  Q 13.52 52.69 13.58 50.89
  Q 13.60 50.38 14.10 50.26
  Q 16.45 49.71 15.57 49.12"
/>
<path stroke="#690219" vector-effect="non-scaling-stroke" d="
  M 13.03 53.88
  Q 13.35 52.98 12.80 52.36
  Q 12.48 52.01 11.55 51.88
  Q 10.33 51.71 9.92 51.01"
/>
<path stroke="#861548" vector-effect="non-scaling-stroke" d="
  M 22.69 52.72
  Q 22.26 52.93 21.95 53.26"
/>
<path stroke="#e2145e" vector-effect="non-scaling-stroke" d="
  M 36.39 51.78
  Q 36.36 51.37 36.20 50.98"
/>
<path stroke="#690219" vector-effect="non-scaling-stroke" d="
  M 102.30 50.03
  Q 102.15 51.30 102.72 51.81"
/>
<path stroke="#690219" vector-effect="non-scaling-stroke" d="
  M 98.80 53.65
  Q 98.97 53.40 98.76 53.16
  Q 98.41 52.74 98.17 53.23
  Q 97.85 53.92 97.09 54.00
  Q 96.10 54.09 97.08 54.29
  Q 97.35 54.35 97.47 54.44"
/>
<path stroke="#e2145e" vector-effect="non-scaling-stroke" d="
  M 93.42 54.39
  Q 93.69 54.24 93.73 54.13"
/>
<path stroke="#690219" vector-effect="non-scaling-stroke" d="
  M 9.13 50.68
  Q 7.19 50.89 8.17 54.79"
/>
<path stroke="#690219" vector-effect="non-scaling-stroke" d="
  M 7.05 54.27
  Q 7.27 52.49 6.48 50.82"
/>
<path stroke="#690219" vector-effect="non-scaling-stroke" d="
  M 82.05 54.42
  Q 79.89 56.10 84.38 57.10
  Q 85.48 57.35 86.72 58.75
  Q 86.91 58.96 86.91 59.13
  Q 86.91 59.36 86.73 59.56"
/>
<path stroke="#be1455" vector-effect="non-scaling-stroke" d="
  M 24.02 53.11
  Q 24.08 54.35 22.26 54.06"
/>
<path stroke="#a1164e" vector-effect="non-scaling-stroke" d="
  M 40.47 57.36
  Q 39.55 55.65 36.01 55.98"
/>
<path stroke="#861548" vector-effect="non-scaling-stroke" d="
  M 69.73 56.00
  Q 68.12 55.70 66.53 57.18"
/>
<path stroke="#e61465" vector-effect="non-scaling-stroke" d="
  M 66.53 57.18
  Q 66.14 57.04 65.95 57.31"
/>
<path stroke="#690219" vector-effect="non-scaling-stroke" d="
  M 92.22 57.30
  Q 91.63 57.33 91.44 57.63
  Q 91.13 58.12 91.67 58.31
  L 92.44 58.58"
/>
<path stroke="#a10126" vector-effect="non-scaling-stroke" d="
  M 97.64 66.28
  Q 96.77 66.63 97.19 66.37"
/>
<path stroke="#690219" vector-effect="non-scaling-stroke" d="
  M 97.19 66.37
  Q 96.06 65.86 94.45 66.73"
/>
<path stroke="#690219" vector-effect="non-scaling-stroke" d="
  M 90.57 62.22
  L 91.03 60.51
  Q 91.28 59.59 90.51 60.16
  Q 89.10 61.23 90.00 62.18"
/>
<path stroke="#690219" vector-effect="non-scaling-stroke" d="
  M 88.28 61.45
  L 88.72 61.37
  Q 89.24 61.28 88.87 60.90
  Q 88.06 60.06 87.25 60.14"
/>
<path stroke="#880226" vector-effect="non-scaling-stroke" d="
  M 35.57 59.54
  Q 35.94 59.07 35.79 58.79
  Q 35.63 58.46 35.99 58.40
  L 37.73 58.13
  A 0.50 0.49 -12.2 0 0 38.13 57.52
  L 38.04 57.18
  A 0.76 0.76 0.0 0 0 37.26 56.63
  L 30.36 57.18
  Q 29.89 57.21 29.47 57.40
  Q 28.59 57.77 28.02 57.34"
/>
<path stroke="#690219" vector-effect="non-scaling-stroke" d="
  M 77.67 58.02
  L 75.23 59.97"
/>
<path stroke="#861548" vector-effect="non-scaling-stroke" d="
  M 75.23 59.97
  Q 74.94 60.81 74.01 60.96"
/>
<path stroke="#6c0220" vector-effect="non-scaling-stroke" d="
  M 69.60 58.74
  Q 70.27 57.81 71.31 58.52
  Q 73.94 60.32 75.69 57.96
  A 0.68 0.68 0.0 0 0 75.10 56.88
  Q 72.17 57.08 69.62 56.70
  C 68.71 56.57 67.72 56.90 66.98 57.45
  Q 66.74 57.64 66.53 57.18"
/>
<path stroke="#6c0220" vector-effect="non-scaling-stroke" d="
  M 33.53 60.25
  Q 34.47 59.88 34.66 59.50
  Q 34.87 59.08 34.40 59.15
  Q 31.76 59.54 29.71 61.20"
/>
<path stroke="#6c0220" vector-effect="non-scaling-stroke" d="
  M 29.48 61.49
  Q 29.16 61.45 28.99 61.23
  Q 28.84 61.05 28.84 60.80
  Q 28.87 59.51 28.79 58.23
  Q 28.76 57.63 28.18 57.79
  Q 27.92 57.87 27.72 58.04
  Q 27.33 58.38 27.53 58.86
  Q 28.36 60.80 27.65 62.96"
/>
<path stroke="#6c0220" vector-effect="non-scaling-stroke" d="
  M 25.71 66.42
  L 22.54 64.67
  Q 22.10 64.43 22.28 63.97
  L 23.34 61.27"
/>
<path stroke="#97525b" vector-effect="non-scaling-stroke" d="
  M 11.05 60.21
  Q 12.39 60.01 12.02 58.47"
/>
<path stroke="#690219" vector-effect="non-scaling-stroke" d="
  M 79.51 59.15
  Q 79.15 59.20 79.25 59.50
  Q 79.80 61.09 81.29 60.83"
/>
<path stroke="#690219" vector-effect="non-scaling-stroke" d="
  M 82.42 61.71
  Q 82.86 64.81 84.65 65.37"
/>
<path stroke="#690219" vector-effect="non-scaling-stroke" d="
  M 85.86 67.65
  Q 85.72 68.87 83.94 69.90
  Q 83.47 70.17 83.06 69.82
  Q 81.75 68.67 81.04 67.21
  Q 80.83 66.77 80.86 66.28
  Q 80.93 65.31 80.02 65.13
  Q 79.55 65.03 79.21 64.71
  L 77.65 63.26"
/>
<path stroke="#e2145e" vector-effect="non-scaling-stroke" d="
  M 76.24 62.21
  Q 75.31 62.04 75.16 61.57
  Q 75.01 61.11 75.46 60.95
  Q 75.94 60.77 75.89 60.24
  Q 75.88 60.10 75.23 59.97"
/>
<path stroke="#6c0220" vector-effect="non-scaling-stroke" d="
  M 25.47 66.80
  Q 23.69 67.31 22.54 65.95
  Q 22.23 65.59 21.84 65.86
  Q 20.73 66.63 19.37 66.82"
/>
<path stroke="#690219" vector-effect="non-scaling-stroke" d="
  M 86.10 69.95
  Q 84.01 69.32 86.42 74.14"
/>
<path stroke="#450210" vector-effect="non-scaling-stroke" d="
  M 10.28 67.40
  L 9.10 66.79"
/>
<path stroke="#e61465" vector-effect="non-scaling-stroke" d="
  M 24.15 68.81
  Q 22.61 69.25 23.10 71.08"
/>
<path stroke="#880226" vector-effect="non-scaling-stroke" d="
  M 21.36 71.36
  Q 21.69 71.26 21.35 71.17
  Q 20.08 70.85 19.35 69.78
  Q 19.10 69.40 18.78 69.72
  L 18.46 70.04
  Q 18.11 70.39 18.51 70.69
  Q 19.93 71.78 21.36 71.36"
/>
<path stroke="#450210" vector-effect="non-scaling-stroke" d="
  M 97.19 66.37
  Q 96.37 66.91 95.50 67.13"
/>
<path stroke="#450210" vector-effect="non-scaling-stroke" d="
  M 96.21 70.99
  Q 97.37 70.19 97.12 69.00
  Q 97.03 68.59 96.65 68.39
  Q 96.30 68.21 96.16 68.59
  L 96.02 69.00"
/>
<path stroke="#450210" vector-effect="non-scaling-stroke" d="
  M 9.72 68.19
  Q 9.22 67.95 8.64 69.87"
/>
</g>
<path fill="#ff278d" d="
  M 72.16 1.63
  Q 70.10 3.69 68.52 4.14
  Q 66.18 2.93 65.27 3.76
  Q 64.40 3.76 63.52 3.21
  Q 63.86 2.70 64.43 2.63
  Q 64.76 2.59 64.48 2.42
  Q 64.28 2.31 64.11 2.41
  A 0.28 0.26 -47.6 0 1 63.89 2.43
  Q 62.89 2.09 63.35 0.59
  L 70.04 1.05
  Q 70.59 1.09 70.95 0.68
  L 71.17 0.43
  Q 71.46 0.10 71.71 0.46
  Q 72.10 1.03 72.16 1.63
  Z"
/>
<path fill="#0c0303" d="
  M 63.35 0.59
  Q 62.89 2.09 63.89 2.43
  A 0.28 0.26 -47.6 0 0 64.11 2.41
  Q 64.28 2.31 64.48 2.42
  Q 64.76 2.59 64.43 2.63
  Q 63.86 2.70 63.52 3.21
  Q 62.85 2.96 62.21 3.10
  Q 61.71 3.22 61.80 2.72
  Q 61.97 1.68 63.35 0.59
  Z"
/>
<path fill="#cc003d" d="
  M 72.16 1.63
  Q 73.12 2.14 72.45 1.97
  Q 73.96 4.22 76.15 4.77
  Q 76.59 5.58 76.10 6.43
  Q 75.83 6.91 75.31 7.09
  Q 74.41 7.41 73.83 8.12
  Q 73.47 8.58 72.92 8.38
  Q 72.24 8.13 71.63 8.46
  Q 71.20 8.69 71.52 9.05
  C 73.22 11.00 76.02 8.23 77.11 6.92
  Q 77.44 6.52 77.91 6.72
  L 82.08 8.44
  L 84.43 9.97
  Q 88.20 16.92 89.58 25.57
  Q 90.78 25.38 89.49 27.63
  Q 88.74 27.47 88.02 27.56
  Q 87.55 27.63 87.18 27.32
  L 79.20 20.73
  Q 78.82 19.71 77.91 20.00
  Q 77.46 20.14 77.39 20.61
  Q 77.33 21.05 76.90 21.44
  Q 76.57 21.20 76.46 20.93
  Q 75.89 19.36 74.21 19.63
  Q 72.14 19.11 70.67 18.01
  Q 72.81 18.21 70.57 15.52
  Q 70.39 15.31 70.19 15.30
  Q 69.95 15.29 69.73 15.46
  L 67.75 14.20
  Q 67.67 14.07 67.72 13.95
  Q 67.79 13.81 67.96 13.81
  L 68.80 13.82
  Q 69.74 13.84 69.00 13.26
  Q 68.45 12.83 67.72 12.79
  Q 66.32 10.91 64.73 10.62
  Q 62.08 9.00 61.16 6.13
  L 62.22 4.69
  Q 63.35 5.09 64.21 5.77
  Q 64.20 6.13 64.32 6.47
  Q 64.44 6.77 64.70 6.97
  Q 67.28 8.97 70.46 9.04
  Q 70.99 9.05 71.01 8.52
  Q 71.07 6.82 70.06 6.92
  Q 69.26 5.21 67.26 4.67
  Q 69.04 4.60 68.52 4.14
  Q 70.10 3.69 72.16 1.63
  Z
  M 76.70 18.73
  L 72.47 11.64
  A 0.01 0.01 0.0 0 0 72.46 11.63
  L 72.36 11.69
  A 4.01 0.80 59.2 0 0 73.73 15.54
  L 73.86 15.77
  A 4.01 0.80 59.2 0 0 76.60 18.80
  L 76.70 18.75
  A 0.01 0.01 0.0 0 0 76.70 18.73
  Z"
/>
<path fill="#0c0303" d="
  M 72.45 1.97
  L 76.31 3.32
  Q 76.88 3.52 76.58 4.03
  L 76.15 4.77
  Q 73.96 4.22 72.45 1.97
  Z"
/>
<path fill="#cc003d" d="
  M 35.26 10.63
  L 32.17 11.11
  A 1.16 1.15 -24.2 0 1 31.13 10.72
  L 30.96 10.52
  A 0.24 0.24 0.0 0 1 31.09 10.13
  Q 37.73 8.80 33.69 7.88
  Q 34.52 6.67 36.50 6.79
  A 0.43 0.42 -80.7 0 0 36.93 6.47
  L 37.12 5.80
  Q 37.22 5.40 36.82 5.49
  Q 33.75 6.12 31.99 8.55
  Q 31.56 8.13 31.96 7.15
  Q 32.15 6.68 31.90 6.25
  Q 30.89 4.55 28.98 5.42
  Q 28.90 4.28 30.26 4.06
  Q 32.40 3.73 34.16 2.85
  C 36.33 1.77 38.99 2.13 40.85 3.59
  Q 41.18 3.85 41.01 4.24
  Q 39.70 7.23 36.96 8.67
  Q 36.36 8.98 35.26 10.63
  Z
  M 35.3497 3.7725
  A 0.86 0.48 1.5 0 0 34.5026 3.2702
  A 0.86 0.48 1.5 0 0 33.6303 3.7275
  A 0.86 0.48 1.5 0 0 34.4774 4.2298
  A 0.86 0.48 1.5 0 0 35.3497 3.7725
  Z
  M 38.13 5.13
  Q 37.83 5.37 37.87 5.72
  A 0.46 0.46 0.0 0 0 38.68 5.95
  L 39.71 4.71
  Q 40.40 3.88 39.33 3.95
  Q 38.16 4.03 38.13 5.13
  Z"
/>
<ellipse fill="#43040e" fill-opacity="0.996" cx="0.00" cy="0.00" transform="translate(34.49,3.75) rotate(1.5)" rx="0.86" ry="0.48"/>
<path fill="#0c0303" d="
  M 68.52 4.14
  Q 69.04 4.60 67.26 4.67
  L 65.27 3.76
  Q 66.18 2.93 68.52 4.14
  Z"
/>
<path fill="#43040e" fill-opacity="0.996" d="
  M 38.13 5.13
  Q 38.16 4.03 39.33 3.95
  Q 40.40 3.88 39.71 4.71
  L 38.68 5.95
  A 0.46 0.46 0.0 0 1 37.87 5.72
  Q 37.83 5.37 38.13 5.13
  Z"
/>
<path fill="#0c0303" d="
  M 62.22 4.69
  L 61.16 6.13
  Q 60.56 3.15 62.22 4.69
  Z"
/>
<path fill="#0c0303" d="
  M 76.15 4.77
  Q 77.21 4.99 76.99 4.75
  Q 77.64 6.12 79.00 6.19
  Q 79.48 6.21 79.81 6.57
  Q 80.39 7.22 81.09 7.17
  L 82.08 8.44
  L 77.91 6.72
  Q 77.44 6.52 77.11 6.92
  C 76.02 8.23 73.22 11.00 71.52 9.05
  Q 71.20 8.69 71.63 8.46
  Q 72.24 8.13 72.92 8.38
  Q 73.47 8.58 73.83 8.12
  Q 74.41 7.41 75.31 7.09
  Q 75.83 6.91 76.10 6.43
  Q 76.59 5.58 76.15 4.77
  Z"
/>
<path fill="#cc003d" d="
  M 81.09 7.17
  Q 80.39 7.22 79.81 6.57
  Q 79.48 6.21 79.00 6.19
  Q 77.64 6.12 76.99 4.75
  Q 79.50 5.23 81.09 7.17
  Z"
/>
<path fill="#0c0303" d="
  M 31.99 8.55
  Q 32.11 9.38 33.69 7.88
  Q 37.73 8.80 31.09 10.13
  A 0.24 0.24 0.0 0 0 30.96 10.52
  L 31.13 10.72
  A 1.16 1.15 -24.2 0 0 32.17 11.11
  L 35.26 10.63
  Q 34.88 12.54 34.03 13.06
  Q 33.30 11.72 31.41 11.91
  A 1.41 1.36 58.1 0 1 30.50 11.68
  Q 28.59 10.40 27.27 8.64
  A 0.86 0.86 0.0 0 0 26.14 8.43
  L 21.49 11.22
  Q 21.19 11.40 20.95 11.15
  Q 20.84 11.04 20.75 10.88
  L 27.75 6.15
  Q 28.98 7.50 29.21 9.21
  Q 29.28 9.69 29.67 9.99
  Q 30.02 10.26 30.42 10.08
  Q 30.92 9.85 31.02 9.32
  C 31.47 6.88 28.97 6.22 28.98 5.42
  Q 30.89 4.55 31.90 6.25
  Q 32.15 6.68 31.96 7.15
  Q 31.56 8.13 31.99 8.55
  Z"
/>
<path fill="#c5002f" d="
  M 28.98 5.42
  C 28.97 6.22 31.47 6.88 31.02 9.32
  Q 30.92 9.85 30.42 10.08
  Q 30.02 10.26 29.67 9.99
  Q 29.28 9.69 29.21 9.21
  Q 28.98 7.50 27.75 6.15
  Q 28.35 6.07 28.98 5.42
  Z"
/>
<path fill="#0c0303" d="
  M 64.21 5.77
  Q 65.63 6.02 66.49 6.77
  Q 67.50 7.67 68.49 8.23
  Q 68.81 8.41 69.06 8.35
  Q 69.42 8.25 69.47 7.81
  Q 70.05 7.84 70.06 6.92
  Q 71.07 6.82 71.01 8.52
  Q 70.99 9.05 70.46 9.04
  Q 67.28 8.97 64.70 6.97
  Q 64.44 6.77 64.32 6.47
  Q 64.20 6.13 64.21 5.77
  Z"
/>
<path fill="#cc003d" d="
  M 66.49 6.77
  Q 68.26 6.79 69.47 7.81
  Q 69.42 8.25 69.06 8.35
  Q 68.81 8.41 68.49 8.23
  Q 67.50 7.67 66.49 6.77
  Z"
/>
<path fill="#cc003d" d="
  M 34.03 13.06
  L 32.58 14.77
  Q 32.59 14.65 32.60 14.52
  Q 32.60 14.51 32.58 14.50
  Q 29.55 14.23 27.45 16.44
  Q 24.23 19.81 21.59 23.22
  Q 21.19 23.74 21.09 24.97
  Q 21.05 25.52 20.50 25.56
  L 17.11 25.83
  Q 17.04 24.68 16.54 24.04
  Q 17.07 23.92 16.80 23.03
  Q 16.95 23.44 17.20 23.77
  Q 17.55 24.23 17.71 23.68
  Q 18.39 21.42 17.09 20.06
  L 17.80 16.74
  L 18.12 17.35
  Q 18.44 17.96 18.61 17.30
  L 19.77 12.95
  Q 20.42 12.12 20.75 10.88
  Q 20.84 11.04 20.95 11.15
  Q 21.19 11.40 21.49 11.22
  L 26.14 8.43
  A 0.86 0.86 0.0 0 1 27.27 8.64
  Q 28.59 10.40 30.50 11.68
  A 1.41 1.36 58.1 0 0 31.41 11.91
  Q 33.30 11.72 34.03 13.06
  Z"
/>
<path fill="#0c0303" d="
  M 84.43 9.97
  Q 87.84 13.73 89.57 19.23
  Q 90.54 22.31 89.58 25.57
  Q 88.20 16.92 84.43 9.97
  Z"
/>
<path fill="#0c0303" d="
  M 67.72 12.79
  Q 67.78 12.92 67.82 13.05
  Q 67.91 13.35 67.60 13.40
  Q 67.18 13.46 67.28 13.70
  Q 65.61 12.39 64.73 10.62
  Q 66.32 10.91 67.72 12.79
  Z"
/>
<path fill="#ff278d" d="
  M 20.75 10.88
  Q 20.42 12.12 19.77 12.95
  Q 19.16 13.29 18.98 13.16
  Q 19.34 11.91 20.75 10.88
  Z"
/>
<path fill="#0c0303" d="
  M 76.70 18.73
  A 0.01 0.01 0.0 0 1 76.70 18.75
  L 76.60 18.80
  A 4.01 0.80 59.2 0 1 73.86 15.77
  L 73.73 15.54
  A 4.01 0.80 59.2 0 1 72.36 11.69
  L 72.46 11.63
  A 0.01 0.01 0.0 0 1 72.47 11.64
  L 76.70 18.73
  Z"
/>
<path fill="#7d011c" d="
  M 67.72 12.79
  Q 68.45 12.83 69.00 13.26
  Q 69.74 13.84 68.80 13.82
  L 67.96 13.81
  Q 67.79 13.81 67.72 13.95
  Q 67.67 14.07 67.75 14.20
  Q 67.42 14.02 67.28 13.70
  Q 67.18 13.46 67.60 13.40
  Q 67.91 13.35 67.82 13.05
  Q 67.78 12.92 67.72 12.79
  Z"
/>
<path fill="#0c0303" d="
  M 19.77 12.95
  L 18.61 17.30
  Q 18.44 17.96 18.12 17.35
  L 17.80 16.74
  L 18.98 13.16
  Q 19.16 13.29 19.77 12.95
  Z"
/>
<path fill="#0c0303" d="
  M 32.58 14.77
  Q 32.51 15.17 32.20 15.53
  Q 31.93 15.92 31.43 16.00
  Q 31.47 15.61 31.03 15.31
  Q 30.61 15.01 30.21 15.35
  Q 27.30 17.80 24.02 21.77
  Q 23.12 22.87 23.07 24.25
  Q 22.97 25.48 22.08 26.35
  A 0.30 0.30 0.0 0 0 22.06 26.75
  L 22.26 26.98
  Q 22.50 27.26 22.77 27.02
  L 24.03 25.90
  Q 25.52 26.77 25.61 27.62
  L 17.98 28.10
  Q 15.93 28.23 16.90 30.04
  Q 17.73 31.58 18.13 33.66
  Q 18.22 34.15 18.50 34.56
  L 20.64 37.76
  L 19.22 37.02
  Q 19.17 36.94 19.12 36.86
  Q 18.00 35.55 17.59 33.96
  Q 17.28 32.77 16.46 31.66
  Q 16.17 31.27 16.20 30.78
  Q 16.27 29.42 15.14 28.60
  Q 16.48 27.28 17.11 25.83
  L 20.50 25.56
  Q 21.05 25.52 21.09 24.97
  Q 21.19 23.74 21.59 23.22
  Q 24.23 19.81 27.45 16.44
  Q 29.55 14.23 32.58 14.50
  Q 32.60 14.51 32.60 14.52
  Q 32.59 14.65 32.58 14.77
  Z"
/>
<path fill="#c5002f" d="
  M 31.43 16.00
  Q 30.66 16.76 31.11 18.25
  Q 30.76 18.56 30.58 18.99
  Q 30.65 18.76 30.64 18.54
  Q 30.61 18.00 30.11 18.22
  Q 27.83 19.22 27.65 21.02
  Q 25.79 22.24 24.36 24.30
  Q 24.09 23.82 23.50 23.86
  Q 23.26 23.88 23.07 24.25
  Q 23.12 22.87 24.02 21.77
  Q 27.30 17.80 30.21 15.35
  Q 30.61 15.01 31.03 15.31
  Q 31.47 15.61 31.43 16.00
  Z"
/>
<path fill="#0c0303" d="
  M 70.67 18.01
  Q 69.65 17.04 69.73 15.46
  Q 69.95 15.29 70.19 15.30
  Q 70.39 15.31 70.57 15.52
  Q 72.81 18.21 70.67 18.01
  Z"
/>
<path fill="#ff278d" d="
  M 32.20 15.53
  Q 32.09 17.15 31.11 18.25
  Q 30.66 16.76 31.43 16.00
  Q 31.93 15.92 32.20 15.53
  Z"
/>
<path fill="#0c0303" d="
  M 30.58 18.99
  L 29.83 20.24
  Q 29.58 20.66 29.12 20.49
  Q 28.25 20.15 27.65 21.02
  Q 27.83 19.22 30.11 18.22
  Q 30.61 18.00 30.64 18.54
  Q 30.65 18.76 30.58 18.99
  Z"
/>
<path fill="#43040e" fill-opacity="0.996" d="
  M 47.24 19.07
  Q 46.66 19.16 46.28 18.69
  A 0.35 0.34 -19.3 0 1 46.55 18.13
  Q 47.74 18.13 48.61 19.06
  Q 49.02 19.50 48.42 19.58
  Q 48.05 19.64 47.87 19.36
  Q 47.65 19.01 47.24 19.07
  Z"
/>
<ellipse fill="#0c0303" cx="0.00" cy="0.00" transform="translate(50.92,19.54) rotate(21.6)" rx="0.93" ry="0.49"/>
<path fill="#0c0303" d="
  M 57.93 20.60
  A 0.34 0.34 0.0 0 1 57.36 20.45
  L 57.23 19.97
  Q 57.03 19.23 57.79 19.26
  L 58.22 19.27
  Q 59.16 19.30 58.51 19.98
  L 57.93 20.60
  Z"
/>
<path fill="#0c0303" d="
  M 76.46 20.93
  L 75.83 21.28
  L 74.21 19.63
  Q 75.89 19.36 76.46 20.93
  Z"
/>
<path fill="#7d011c" d="
  M 79.20 20.73
  Q 79.31 23.08 81.03 24.44
  Q 81.39 24.73 81.09 25.09
  Q 80.97 25.22 80.74 25.31
  Q 79.07 22.97 76.85 21.83
  Q 77.01 21.85 76.90 21.44
  Q 77.33 21.05 77.39 20.61
  Q 77.46 20.14 77.91 20.00
  Q 78.82 19.71 79.20 20.73
  Z"
/>
<path fill="#43040e" fill-opacity="0.996" d="
  M 17.09 20.06
  Q 18.39 21.42 17.71 23.68
  Q 17.55 24.23 17.20 23.77
  Q 16.95 23.44 16.80 23.03
  Q 16.82 22.99 16.84 22.95
  L 17.09 20.06
  Z"
/>
<path fill="#0c0303" d="
  M 49.65 22.05
  Q 49.27 22.38 48.98 22.49
  Q 47.86 21.78 47.45 20.59
  A 0.30 0.30 0.0 0 1 47.68 20.21
  L 47.95 20.15
  Q 48.03 20.13 48.06 20.22
  Q 48.40 21.56 49.65 22.05
  Z"
/>
<path fill="#0c0303" d="
  M 79.20 20.73
  L 87.18 27.32
  Q 87.55 27.63 88.02 27.56
  Q 88.74 27.47 89.49 27.63
  L 89.66 28.26
  L 89.90 32.42
  Q 90.21 33.62 90.02 34.65
  Q 89.85 35.61 88.82 36.31
  Q 86.98 37.55 85.17 37.99
  C 87.94 36.14 90.13 32.85 89.15 29.48
  A 0.70 0.70 0.0 0 0 88.44 28.98
  C 85.08 29.15 83.34 27.29 80.50 25.95
  Q 80.93 25.49 80.74 25.31
  Q 80.97 25.22 81.09 25.09
  Q 81.39 24.73 81.03 24.44
  Q 79.31 23.08 79.20 20.73
  Z"
/>
<path fill="#0c0303" d="
  M 53.73 22.58
  Q 52.19 22.24 51.78 22.98
  Q 51.15 22.89 51.02 22.38
  A 0.39 0.39 0.0 0 1 51.42 21.90
  Q 51.78 21.91 51.92 21.59
  Q 52.19 20.96 52.77 21.33
  Q 53.50 21.79 53.73 22.58
  Z"
/>
<path fill="#eaa0a8" d="
  M 76.46 20.93
  Q 76.57 21.20 76.90 21.44
  Q 77.01 21.85 76.85 21.83
  L 75.76 22.55
  Q 74.91 23.12 75.37 22.20
  L 75.83 21.28
  L 76.46 20.93
  Z"
/>
<ellipse fill="#0c0303" cx="0.00" cy="0.00" transform="translate(59.86,22.05) rotate(-35.5)" rx="1.09" ry="0.43"/>
<path fill="#c5002f" d="
  M 48.98 22.49
  Q 49.27 22.38 49.65 22.05
  Q 50.50 23.23 51.73 23.92
  Q 52.07 24.85 51.55 25.75
  Q 51.35 26.10 50.94 26.03
  Q 49.11 25.70 47.61 26.37
  Q 46.53 26.85 45.45 26.91
  Q 43.73 27.00 42.04 26.77
  Q 42.04 26.63 42.04 26.48
  L 42.49 26.67
  Q 42.95 26.87 42.89 26.37
  Q 42.87 26.21 42.77 26.02
  L 45.51 25.75
  A 0.34 0.34 0.0 0 0 45.67 25.12
  Q 44.56 24.38 44.46 23.51
  Q 44.38 22.75 45.06 22.42
  L 45.66 22.12
  A 0.70 0.70 0.0 0 1 46.65 22.59
  L 47.08 24.39
  A 0.86 0.85 -24.3 0 0 48.41 24.89
  Q 49.26 24.28 48.98 22.49
  Z"
/>
<path fill="#0c0303" d="
  M 58.80 24.28
  Q 58.49 24.63 57.90 24.75
  Q 56.80 24.46 56.59 24.03
  Q 55.45 21.73 54.54 24.10
  Q 54.27 24.81 53.92 25.53
  Q 53.56 26.24 53.36 25.48
  Q 53.13 24.66 53.64 24.12
  Q 54.30 23.41 54.01 22.83
  Q 55.45 22.22 56.92 22.12
  Q 57.43 22.08 57.70 22.52
  L 58.80 24.28
  Z"
/>
<path fill="#ff278d" d="
  M 16.84 22.95
  Q 16.82 22.99 16.80 23.03
  Q 17.07 23.92 16.54 24.04
  L 15.55 22.74
  Q 14.95 21.96 15.82 22.42
  L 16.84 22.95
  Z"
/>
<path fill="#cc003d" d="
  M 71.88 29.31
  Q 71.82 30.17 72.12 31.04
  Q 72.28 31.52 72.77 31.67
  Q 73.88 32.01 74.98 31.78
  Q 75.37 31.73 75.72 32.05
  Q 75.65 32.86 76.03 33.82
  Q 76.26 34.42 75.81 34.88
  Q 75.70 34.99 75.63 35.12
  Q 75.27 35.74 75.99 35.82
  L 77.29 35.96
  Q 78.06 36.04 77.59 36.66
  C 75.17 39.84 74.30 42.79 70.72 45.80
  Q 70.69 44.74 70.00 44.83
  Q 69.44 44.91 68.88 45.07
  Q 68.40 45.20 68.08 44.83
  Q 67.77 44.49 68.11 44.10
  Q 68.68 43.44 69.43 43.87
  A 0.45 0.45 0.0 0 0 70.10 43.48
  Q 70.25 36.96 70.23 30.64
  Q 70.22 30.20 69.98 29.84
  Q 69.64 29.32 69.07 29.63
  Q 68.52 29.91 68.31 29.34
  Q 67.82 28.00 66.40 27.31
  Q 66.64 27.32 66.84 27.30
  Q 67.55 27.25 67.03 26.76
  Q 66.86 26.61 66.66 26.47
  Q 66.54 26.39 66.39 26.43
  Q 64.93 26.80 64.39 25.20
  A 1.14 1.14 0.0 0 0 62.42 24.85
  Q 61.39 26.15 59.56 25.69
  Q 58.75 25.45 57.90 24.75
  Q 58.49 24.63 58.80 24.28
  Q 59.93 25.70 61.09 24.36
  Q 61.57 23.81 61.91 23.23
  Q 63.30 20.86 63.85 23.57
  C 64.04 24.51 64.48 25.11 65.31 25.59
  Q 68.61 27.49 71.88 29.31
  Z"
/>
<path fill="#ff278d" d="
  M 53.73 22.58
  Q 53.81 22.59 54.01 22.83
  Q 54.30 23.41 53.64 24.12
  Q 53.13 24.66 53.36 25.48
  Q 53.56 26.24 53.92 25.53
  Q 54.27 24.81 54.54 24.10
  Q 55.45 21.73 56.59 24.03
  Q 56.80 24.46 57.90 24.75
  Q 58.75 25.45 59.56 25.69
  L 61.73 26.60
  Q 62.26 26.83 62.70 26.47
  Q 63.40 25.91 64.04 26.45
  Q 64.42 26.77 64.90 26.90
  L 66.40 27.31
  Q 67.82 28.00 68.31 29.34
  Q 68.52 29.91 69.07 29.63
  Q 69.64 29.32 69.98 29.84
  Q 70.22 30.20 70.23 30.64
  Q 70.25 36.96 70.10 43.48
  A 0.45 0.45 0.0 0 1 69.43 43.87
  Q 68.68 43.44 68.11 44.10
  Q 67.77 44.49 68.08 44.83
  Q 68.40 45.20 68.88 45.07
  Q 69.44 44.91 70.00 44.83
  Q 70.69 44.74 70.72 45.80
  L 70.00 47.14
  C 67.56 48.33 65.22 49.67 62.56 50.23
  Q 59.84 50.80 57.65 52.53
  Q 57.12 52.95 56.44 52.96
  L 48.74 53.00
  A 2.03 2.02 -25.9 0 1 47.49 52.57
  Q 42.41 48.55 35.74 48.02
  Q 34.67 46.41 35.55 45.01
  Q 37.23 42.35 36.10 42.04
  L 35.55 30.78
  Q 35.52 30.27 35.92 29.96
  L 37.09 29.05
  Q 38.97 29.12 39.75 28.87
  Q 40.42 28.66 40.01 27.43
  Q 40.81 26.68 42.04 26.77
  Q 43.73 27.00 45.45 26.91
  Q 46.53 26.85 47.61 26.37
  Q 49.11 25.70 50.94 26.03
  Q 51.35 26.10 51.55 25.75
  Q 52.07 24.85 51.73 23.92
  Q 52.13 23.47 51.78 22.98
  Q 52.19 22.24 53.73 22.58
  Z
  M 42.92 31.20
  Q 43.38 31.47 43.38 30.94
  L 43.38 30.28
  A 0.48 0.48 0.0 0 0 42.66 29.86
  Q 42.44 29.98 42.32 30.22
  Q 42.19 30.47 42.36 30.70
  Q 42.57 31.00 42.92 31.20
  Z
  M 55.82 30.39
  A 4.39 0.61 0.0 0 0 51.43 29.78
  A 4.39 0.61 0.0 0 0 47.04 30.39
  A 4.39 0.61 0.0 0 0 51.43 31.00
  A 4.39 0.61 0.0 0 0 55.82 30.39
  Z
  M 61.35 32.65
  Q 62.00 33.14 62.65 32.72
  Q 63.55 32.14 62.48 32.12
  Q 60.22 32.08 58.12 30.79
  Q 58.05 30.75 57.99 30.81
  Q 56.98 31.96 58.50 31.84
  Q 60.11 31.72 61.35 32.65
  Z
  M 61.5168 36.1597
  A 1.28 0.46 88.8 0 0 61.9499 34.8704
  A 1.28 0.46 88.8 0 0 61.4632 33.6003
  A 1.28 0.46 88.8 0 0 61.0301 34.8896
  A 1.28 0.46 88.8 0 0 61.5168 36.1597
  Z
  M 61.5039 38.3895
  A 0.68 0.45 92.2 0 0 61.9797 37.7273
  A 0.68 0.45 92.2 0 0 61.5561 37.0305
  A 0.68 0.45 92.2 0 0 61.0803 37.6927
  A 0.68 0.45 92.2 0 0 61.5039 38.3895
  Z
  M 39.23 43.45
  Q 39.02 43.19 38.70 43.10
  A 0.38 0.38 0.0 0 0 38.31 43.70
  L 39.82 45.58
  Q 40.15 45.99 40.62 45.77
  Q 41.32 45.45 41.61 44.82
  Q 41.88 44.23 41.24 44.25
  C 40.53 44.28 39.68 44.02 39.23 43.45
  Z
  M 64.00 44.23
  Q 63.05 43.39 62.07 43.73
  A 0.51 0.51 0.0 0 0 62.11 44.71
  Q 62.99 44.94 63.83 44.81
  A 0.33 0.33 0.0 0 0 64.00 44.23
  Z
  M 43.06 46.29
  Q 43.21 47.73 44.44 47.98
  Q 45.46 48.18 44.78 47.39
  L 43.62 46.05
  Q 42.95 45.29 43.06 46.29
  Z
  M 57.1314 48.4430
  A 0.37 0.37 0.0 0 0 56.7647 48.0698
  L 49.9449 48.0103
  A 0.37 0.37 0.0 0 0 49.5717 48.3770
  L 49.5686 48.7370
  A 0.37 0.37 0.0 0 0 49.9353 49.1102
  L 56.7551 49.1697
  A 0.37 0.37 0.0 0 0 57.1283 48.8030
  L 57.1314 48.4430
  Z"
/>
<path fill="#ff278d" d="
  M 24.36 24.30
  Q 23.81 24.94 24.03 25.90
  L 22.77 27.02
  Q 22.50 27.26 22.26 26.98
  L 22.06 26.75
  A 0.30 0.30 0.0 0 1 22.08 26.35
  Q 22.97 25.48 23.07 24.25
  Q 23.26 23.88 23.50 23.86
  Q 24.09 23.82 24.36 24.30
  Z"
/>
<path fill="#0c0303" d="
  M 66.40 27.31
  L 64.90 26.90
  Q 64.42 26.77 64.04 26.45
  Q 63.40 25.91 62.70 26.47
  Q 62.26 26.83 61.73 26.60
  L 59.56 25.69
  Q 61.39 26.15 62.42 24.85
  A 1.14 1.14 0.0 0 1 64.39 25.20
  Q 64.93 26.80 66.39 26.43
  Q 66.54 26.39 66.66 26.47
  Q 66.86 26.61 67.03 26.76
  Q 67.55 27.25 66.84 27.30
  Q 66.64 27.32 66.40 27.31
  Z"
/>
<path fill="#7d011c" d="
  M 42.77 26.02
  Q 42.87 26.21 42.89 26.37
  Q 42.95 26.87 42.49 26.67
  L 42.04 26.48
  L 39.54 26.40
  L 42.77 26.02
  Z"
/>
<path fill="#cc003d" d="
  M 80.50 25.95
  C 83.34 27.29 85.08 29.15 88.44 28.98
  A 0.70 0.70 0.0 0 1 89.15 29.48
  C 90.13 32.85 87.94 36.14 85.17 37.99
  Q 83.05 38.22 81.08 39.50
  Q 81.21 39.17 80.97 39.04
  Q 82.12 38.58 82.47 37.70
  Q 82.68 37.16 82.18 36.85
  C 79.24 35.08 80.87 32.54 80.26 29.97
  Q 79.90 28.41 79.23 27.02
  Q 78.74 25.97 80.50 25.95
  Z"
/>
<path fill="#0c0303" d="
  M 39.54 26.40
  L 42.04 26.48
  Q 42.04 26.63 42.04 26.77
  Q 40.81 26.68 40.01 27.43
  Q 39.59 27.54 39.29 27.46
  Q 38.87 27.36 39.07 26.98
  Q 39.20 26.73 39.19 26.47
  Q 39.48 26.23 39.54 26.40
  Z"
/>
<path fill="#c5002f" d="
  M 39.19 26.47
  Q 39.20 26.73 39.07 26.98
  Q 38.87 27.36 39.29 27.46
  Q 39.59 27.54 40.01 27.43
  Q 40.42 28.66 39.75 28.87
  Q 38.97 29.12 37.09 29.05
  Q 36.35 28.90 36.03 28.66
  Q 35.16 28.05 35.22 27.54
  Q 35.28 27.02 35.70 27.34
  L 36.34 27.83
  Q 36.82 28.20 37.30 27.84
  L 39.19 26.47
  Z"
/>
<path fill="#cc003d" d="
  M 25.61 27.62
  Q 26.74 31.62 29.15 31.65
  Q 29.34 31.91 29.72 31.99
  Q 28.83 33.26 27.26 33.93
  Q 26.69 34.17 26.37 33.65
  Q 25.72 32.56 25.82 31.06
  Q 25.89 30.12 25.55 31.00
  Q 25.48 31.20 25.33 31.35
  Q 25.03 31.67 25.02 32.10
  C 24.90 34.86 26.05 38.13 21.68 38.23
  Q 20.92 38.07 20.64 37.76
  L 18.50 34.56
  Q 18.22 34.15 18.13 33.66
  Q 17.73 31.58 16.90 30.04
  Q 15.93 28.23 17.98 28.10
  L 25.61 27.62
  Z"
/>
<path fill="#0c0303" d="
  M 79.23 27.02
  Q 79.90 28.41 80.26 29.97
  C 80.87 32.54 79.24 35.08 82.18 36.85
  Q 82.68 37.16 82.47 37.70
  Q 82.12 38.58 80.97 39.04
  Q 81.39 37.62 80.53 37.12
  Q 80.07 36.86 79.62 37.14
  Q 76.82 38.86 77.84 41.46
  Q 73.79 43.59 75.98 44.79
  Q 74.54 45.53 74.93 47.00
  Q 75.02 47.34 74.73 47.53
  Q 74.58 47.62 74.42 47.63
  Q 73.96 47.64 73.99 47.18
  L 74.04 46.43
  Q 74.08 45.77 73.42 45.83
  Q 73.04 45.87 72.74 46.08
  Q 72.34 46.37 72.27 46.86
  Q 72.16 47.53 71.72 47.64
  Q 70.97 47.47 70.60 47.87
  Q 70.27 48.22 70.08 47.77
  Q 69.99 47.56 70.00 47.14
  L 70.72 45.80
  C 74.30 42.79 75.17 39.84 77.59 36.66
  Q 78.06 36.04 77.29 35.96
  L 75.99 35.82
  Q 75.27 35.74 75.63 35.12
  Q 75.70 34.99 75.81 34.88
  Q 76.26 34.42 76.03 33.82
  Q 75.65 32.86 75.72 32.05
  Q 76.17 31.92 76.27 31.75
  Q 76.92 31.87 77.30 31.36
  Q 78.23 32.63 77.71 34.30
  Q 77.46 35.11 78.19 35.26
  A 0.51 0.51 0.0 0 0 78.79 34.86
  Q 79.29 32.29 77.73 29.14
  Q 78.67 29.00 79.23 27.02
  Z"
/>
<path fill="#c5002f" d="
  M 89.66 28.26
  Q 91.08 30.22 89.90 32.42
  L 89.66 28.26
  Z"
/>
<path fill="#c5002f" d="
  M 15.14 28.60
  Q 16.27 29.42 16.20 30.78
  Q 16.17 31.27 16.46 31.66
  Q 17.28 32.77 17.59 33.96
  Q 15.54 32.15 15.14 28.60
  Z"
/>
<path fill="#0c0303" d="
  M 35.21 28.93
  Q 35.41 30.51 34.81 31.30
  A 1.08 1.08 0.0 0 1 33.86 31.72
  C 30.49 31.41 30.31 35.48 27.48 34.64
  Q 26.57 34.37 27.06 35.18
  L 32.10 43.48
  Q 33.63 45.53 35.05 47.72
  Q 35.34 48.16 35.74 48.02
  L 35.63 48.85
  Q 35.57 49.29 35.19 49.07
  Q 35.02 48.97 34.92 48.73
  Q 33.24 47.92 31.18 47.92
  Q 30.89 47.41 30.57 47.42
  Q 30.50 46.97 30.57 46.56
  Q 30.66 46.03 30.82 46.54
  Q 30.86 46.69 31.04 46.65
  Q 31.52 46.56 31.28 46.13
  Q 30.31 44.33 29.10 43.78
  Q 29.07 42.12 28.30 42.20
  L 27.53 41.76
  Q 27.07 41.50 27.20 40.98
  Q 27.59 39.40 25.93 38.44
  Q 25.46 38.17 25.10 38.58
  Q 24.86 38.86 24.81 39.21
  Q 23.07 39.06 21.68 38.23
  C 26.05 38.13 24.90 34.86 25.02 32.10
  Q 25.03 31.67 25.33 31.35
  Q 25.48 31.20 25.55 31.00
  Q 25.89 30.12 25.82 31.06
  Q 25.72 32.56 26.37 33.65
  Q 26.69 34.17 27.26 33.93
  Q 28.83 33.26 29.72 31.99
  Q 30.19 31.24 30.96 30.73
  Q 31.56 30.98 32.00 30.91
  Q 32.36 30.86 32.69 30.27
  Q 33.67 28.56 35.21 28.93
  Z"
/>
<path fill="#cc003d" d="
  M 36.03 28.66
  Q 36.35 28.90 37.09 29.05
  L 35.92 29.96
  Q 35.52 30.27 35.55 30.78
  L 36.10 42.04
  L 34.49 42.37
  Q 33.29 41.82 32.28 42.24
  Q 31.84 42.42 32.09 42.83
  Q 32.18 42.99 32.44 43.06
  Q 32.59 43.13 32.10 43.48
  L 27.06 35.18
  Q 26.57 34.37 27.48 34.64
  C 30.31 35.48 30.49 31.41 33.86 31.72
  A 1.08 1.08 0.0 0 0 34.81 31.30
  Q 35.41 30.51 35.21 28.93
  Q 35.49 29.08 36.03 28.66
  Z
  M 33.0847 36.8969
  A 1.47 0.41 37.6 0 0 32.1702 35.6752
  A 1.47 0.41 37.6 0 0 30.7553 35.1031
  A 1.47 0.41 37.6 0 0 31.6698 36.3248
  A 1.47 0.41 37.6 0 0 33.0847 36.8969
  Z"
/>
<path fill="#43040e" fill-opacity="0.996" d="
  M 9.29 30.72
  Q 8.97 30.72 8.92 30.96
  Q 8.56 31.24 8.26 31.03
  Q 8.15 30.20 8.34 29.51
  Q 8.51 28.90 8.88 29.41
  Q 9.22 29.88 9.29 30.72
  Z"
/>
<path fill="#c5002f" d="
  M 77.73 29.14
  Q 79.29 32.29 78.79 34.86
  A 0.51 0.51 0.0 0 1 78.19 35.26
  Q 77.46 35.11 77.71 34.30
  Q 78.23 32.63 77.30 31.36
  Q 77.71 30.63 77.37 29.92
  Q 77.21 29.58 77.46 29.28
  Q 77.57 29.16 77.73 29.14
  Z"
/>
<path fill="#ff278d" d="
  M 95.68 32.20
  Q 95.45 32.20 95.22 31.93
  Q 95.85 30.66 96.09 29.27
  Q 96.12 29.10 96.29 29.12
  L 96.30 29.12
  Q 96.47 29.15 96.44 29.33
  Q 96.20 30.79 95.68 32.20
  Z"
/>
<path fill="#eaa0a8" d="
  M 30.96 30.73
  Q 30.19 31.24 29.72 31.99
  Q 29.34 31.91 29.15 31.65
  Q 29.78 30.90 29.49 29.77
  Q 29.35 29.21 29.86 29.47
  Q 30.43 29.75 30.96 30.73
  Z"
/>
<path fill="#0c0303" d="
  M 71.88 29.31
  Q 72.69 29.04 73.29 29.25
  Q 73.89 29.46 73.58 30.02
  Q 73.52 30.13 73.45 30.24
  Q 73.33 30.45 73.51 30.61
  Q 73.90 30.95 74.54 31.03
  Q 74.59 31.58 74.98 31.78
  Q 73.88 32.01 72.77 31.67
  Q 72.28 31.52 72.12 31.04
  Q 71.82 30.17 71.88 29.31
  Z"
/>
<path fill="#cc003d" d="
  M 42.92 31.20
  Q 42.57 31.00 42.36 30.70
  Q 42.19 30.47 42.32 30.22
  Q 42.44 29.98 42.66 29.86
  A 0.48 0.48 0.0 0 1 43.38 30.28
  L 43.38 30.94
  Q 43.38 31.47 42.92 31.20
  Z"
/>
<ellipse fill="#c5002f" cx="51.43" cy="30.39" rx="4.39" ry="0.61"/>
<path fill="#ff278d" d="
  M 9.29 30.72
  Q 9.93 31.62 10.28 32.90
  Q 9.98 32.88 9.76 33.11
  Q 9.13 32.74 8.62 34.26
  Q 8.03 33.60 8.28 32.30
  Q 8.50 32.45 8.72 32.27
  Q 8.87 32.16 8.92 31.93
  Q 9.02 31.45 8.92 30.96
  Q 8.97 30.72 9.29 30.72
  Z"
/>
<path fill="#0c0303" d="
  M 8.26 31.03
  Q 8.56 31.24 8.92 30.96
  Q 9.02 31.45 8.92 31.93
  Q 8.87 32.16 8.72 32.27
  Q 8.50 32.45 8.28 32.30
  Q 7.83 31.48 8.26 31.03
  Z"
/>
<path fill="#cc003d" d="
  M 61.35 32.65
  Q 60.11 31.72 58.50 31.84
  Q 56.98 31.96 57.99 30.81
  Q 58.05 30.75 58.12 30.79
  Q 60.22 32.08 62.48 32.12
  Q 63.55 32.14 62.65 32.72
  Q 62.00 33.14 61.35 32.65
  Z"
/>
<path fill="#ff278d" d="
  M 74.54 31.03
  Q 75.59 30.98 76.27 31.75
  Q 76.17 31.92 75.72 32.05
  Q 75.37 31.73 74.98 31.78
  Q 74.59 31.58 74.54 31.03
  Z"
/>
<path fill="#43040e" fill-opacity="0.996" d="
  M 95.22 31.93
  Q 95.45 32.20 95.68 32.20
  Q 96.17 34.05 95.36 35.72
  Q 95.24 35.46 94.94 35.40
  Q 95.07 33.85 94.54 33.76
  Q 94.70 32.73 95.22 31.93
  Z"
/>
<path fill="#43040e" fill-opacity="0.996" d="
  M 9.76 33.11
  Q 9.80 33.31 9.92 33.50
  Q 10.12 33.81 9.95 34.14
  Q 9.48 35.05 8.54 34.82
  Q 8.50 34.47 8.62 34.26
  Q 9.13 32.74 9.76 33.11
  Z"
/>
<path fill="#c5002f" d="
  M 9.76 33.11
  Q 9.98 32.88 10.28 32.90
  L 13.69 37.84
  Q 14.27 38.07 14.15 38.47
  Q 14.09 38.67 13.73 38.92
  Q 12.41 39.85 12.52 40.97
  L 8.91 38.92
  Q 9.23 37.27 8.08 36.82
  Q 7.80 35.61 8.54 34.82
  Q 9.48 35.05 9.95 34.14
  Q 10.12 33.81 9.92 33.50
  Q 9.80 33.31 9.76 33.11
  Z"
/>
<ellipse fill="#cc003d" cx="0.00" cy="0.00" transform="translate(61.49,34.88) rotate(88.8)" rx="1.28" ry="0.46"/>
<path fill="#0c0303" d="
  M 94.54 33.76
  Q 95.07 33.85 94.94 35.40
  Q 93.52 36.20 92.98 35.55
  Q 93.06 34.19 94.54 33.76
  Z"
/>
<ellipse fill="#43040e" fill-opacity="0.996" cx="0.00" cy="0.00" transform="translate(31.92,36.00) rotate(37.6)" rx="1.47" ry="0.41"/>
<path fill="#c5002f" d="
  M 92.98 35.55
  Q 93.52 36.20 94.94 35.40
  Q 95.24 35.46 95.36 35.72
  Q 96.39 37.91 95.17 39.48
  L 95.10 39.23
  Q 94.99 38.85 94.64 39.03
  Q 94.08 39.32 93.78 39.89
  Q 93.71 40.02 93.73 40.17
  Q 93.79 40.47 94.03 40.34
  Q 93.21 41.08 92.24 41.29
  Q 92.17 41.15 92.08 41.06
  Q 91.84 40.79 91.53 40.98
  Q 90.73 41.48 91.09 42.82
  L 89.05 43.55
  Q 87.72 43.57 85.82 45.03
  A 1.49 1.45 27.9 0 1 84.79 45.33
  Q 83.89 45.26 83.84 44.39
  Q 83.80 43.77 84.22 43.32
  L 88.37 38.88
  Q 91.34 37.49 92.98 35.55
  Z"
/>
<path fill="#eaa0a8" d="
  M 8.08 36.82
  Q 9.23 37.27 8.91 38.92
  Q 7.63 38.77 8.08 36.82
  Z"
/>
<path fill="#ff278d" d="
  M 19.12 36.86
  Q 19.17 36.94 19.22 37.02
  L 17.68 38.72
  Q 17.16 38.38 17.06 38.13
  Q 17.90 37.85 19.12 36.86
  Z"
/>
<ellipse fill="#cc003d" cx="0.00" cy="0.00" transform="translate(61.53,37.71) rotate(92.2)" rx="0.68" ry="0.45"/>
<path fill="#cc003d" d="
  M 80.97 39.04
  Q 79.78 39.40 78.79 40.35
  Q 78.60 40.53 79.26 40.70
  L 77.84 41.46
  Q 76.82 38.86 79.62 37.14
  Q 80.07 36.86 80.53 37.12
  Q 81.39 37.62 80.97 39.04
  Z"
/>
<path fill="#0c0303" d="
  M 13.69 37.84
  Q 14.38 37.73 14.70 37.96
  L 13.82 40.16
  A 1.21 1.20 -62.4 0 0 14.27 41.62
  Q 15.73 42.60 15.17 43.14
  L 12.52 40.97
  Q 12.41 39.85 13.73 38.92
  Q 14.09 38.67 14.15 38.47
  Q 14.27 38.07 13.69 37.84
  Z"
/>
<path fill="#c5002f" d="
  M 14.70 37.96
  L 17.06 38.13
  Q 17.16 38.38 17.68 38.72
  Q 18.20 40.13 19.80 41.51
  Q 18.69 41.02 19.84 42.84
  Q 20.10 43.26 19.81 43.65
  L 18.67 45.18
  Q 17.53 45.22 16.82 44.17
  Q 17.10 43.44 15.99 42.92
  Q 15.67 42.77 15.17 43.14
  Q 15.73 42.60 14.27 41.62
  A 1.21 1.20 -62.4 0 1 13.82 40.16
  L 14.70 37.96
  Z"
/>
<path fill="#c5002f" d="
  M 28.30 42.20
  Q 27.67 43.05 27.25 42.52
  Q 25.97 40.90 24.81 39.21
  Q 24.86 38.86 25.10 38.58
  Q 25.46 38.17 25.93 38.44
  Q 27.59 39.40 27.20 40.98
  Q 27.07 41.50 27.53 41.76
  L 28.30 42.20
  Z"
/>
<path fill="#0c0303" d="
  M 88.37 38.88
  L 84.22 43.32
  Q 83.80 43.77 83.84 44.39
  Q 83.89 45.26 84.79 45.33
  A 1.49 1.45 27.9 0 0 85.82 45.03
  Q 87.72 43.57 89.05 43.55
  L 84.31 47.14
  Q 84.32 46.77 83.50 46.00
  Q 82.64 45.18 82.91 43.51
  L 84.34 41.60
  Q 84.67 41.15 85.18 40.91
  Q 86.75 40.18 86.97 38.85
  Q 87.08 38.20 87.63 38.58
  Q 88.13 38.93 88.37 38.88
  Z"
/>
<path fill="#0c0303" d="
  M 80.97 39.04
  Q 81.21 39.17 81.08 39.50
  Q 80.22 40.36 79.26 40.70
  Q 78.60 40.53 78.79 40.35
  Q 79.78 39.40 80.97 39.04
  Z"
/>
<path fill="#0c0303" d="
  M 95.17 39.48
  Q 95.50 39.82 95.62 40.14
  Q 95.81 40.63 95.29 40.55
  L 94.03 40.34
  Q 93.79 40.47 93.73 40.17
  Q 93.71 40.02 93.78 39.89
  Q 94.08 39.32 94.64 39.03
  Q 94.99 38.85 95.10 39.23
  L 95.17 39.48
  Z"
/>
<path fill="#ff278d" d="
  M 92.24 41.29
  Q 91.95 42.63 91.09 42.82
  Q 90.73 41.48 91.53 40.98
  Q 91.84 40.79 92.08 41.06
  Q 92.17 41.15 92.24 41.29
  Z"
/>
<path fill="#0c0303" d="
  M 19.80 41.51
  Q 20.95 42.58 22.10 42.86
  Q 21.54 43.67 21.15 44.11
  Q 20.41 44.93 20.76 45.53
  Q 21.02 45.98 21.54 45.96
  Q 23.75 45.89 23.88 47.00
  L 19.79 46.93
  Q 19.98 46.64 19.69 46.29
  Q 19.37 45.92 19.05 46.02
  Q 19.30 45.67 18.67 45.18
  L 19.81 43.65
  Q 20.10 43.26 19.84 42.84
  Q 18.69 41.02 19.80 41.51
  Z"
/>
<path fill="#0c0303" d="
  M 34.49 42.37
  Q 34.38 43.01 32.44 43.06
  Q 32.18 42.99 32.09 42.83
  Q 31.84 42.42 32.28 42.24
  Q 33.29 41.82 34.49 42.37
  Z"
/>
<path fill="#c5002f" d="
  M 36.10 42.04
  Q 37.23 42.35 35.55 45.01
  Q 34.67 46.41 35.74 48.02
  Q 35.34 48.16 35.05 47.72
  Q 33.63 45.53 32.10 43.48
  Q 32.59 43.13 32.44 43.06
  Q 34.38 43.01 34.49 42.37
  L 36.10 42.04
  Z"
/>
<path fill="#43040e" fill-opacity="0.996" d="
  M 15.17 43.14
  Q 15.67 42.77 15.99 42.92
  Q 17.10 43.44 16.82 44.17
  L 15.73 44.63
  Q 14.76 45.04 15.43 44.23
  L 15.71 43.88
  Q 16.00 43.54 15.64 43.26
  Q 15.45 43.12 15.17 43.14
  Z"
/>
<path fill="#cc003d" d="
  M 22.10 42.86
  L 29.10 43.78
  Q 30.31 44.33 31.28 46.13
  Q 31.52 46.56 31.04 46.65
  Q 30.86 46.69 30.82 46.54
  Q 30.66 46.03 30.57 46.56
  Q 30.50 46.97 30.57 47.42
  L 30.00 47.49
  Q 28.97 46.68 27.47 47.14
  Q 26.49 46.71 25.78 47.08
  L 23.88 47.00
  Q 23.75 45.89 21.54 45.96
  Q 21.02 45.98 20.76 45.53
  Q 20.41 44.93 21.15 44.11
  Q 21.54 43.67 22.10 42.86
  Z"
/>
<path fill="#cc003d" d="
  M 39.23 43.45
  C 39.68 44.02 40.53 44.28 41.24 44.25
  Q 41.88 44.23 41.61 44.82
  Q 41.32 45.45 40.62 45.77
  Q 40.15 45.99 39.82 45.58
  L 38.31 43.70
  A 0.38 0.38 0.0 0 1 38.70 43.10
  Q 39.02 43.19 39.23 43.45
  Z"
/>
<path fill="#cc003d" d="
  M 64.00 44.23
  A 0.33 0.33 0.0 0 1 63.83 44.81
  Q 62.99 44.94 62.11 44.71
  A 0.51 0.51 0.0 0 1 62.07 43.73
  Q 63.05 43.39 64.00 44.23
  Z"
/>
<path fill="#cc003d" d="
  M 82.91 43.51
  Q 82.64 45.18 83.50 46.00
  Q 84.32 46.77 84.31 47.14
  L 84.25 47.76
  Q 84.04 48.03 84.20 48.20
  Q 83.07 48.18 83.03 48.76
  Q 82.92 50.60 83.48 52.71
  L 84.84 52.69
  L 86.00 54.82
  Q 84.69 54.62 83.77 53.31
  Q 83.51 52.94 83.31 53.34
  Q 82.88 54.22 82.05 54.42
  C 81.48 51.21 77.31 52.09 75.00 52.04
  Q 74.83 52.03 74.83 52.21
  L 74.85 52.51
  Q 74.86 52.81 75.15 52.81
  L 79.96 52.86
  Q 80.57 52.87 80.70 53.47
  Q 80.99 54.84 79.36 56.90
  L 77.31 57.23
  Q 76.65 56.05 75.25 56.08
  Q 72.45 56.13 69.73 56.00
  Q 70.58 54.73 70.00 53.10
  L 73.20 52.78
  Q 73.37 52.76 73.36 52.60
  L 73.34 52.27
  Q 73.33 52.14 73.20 52.14
  L 65.82 51.97
  A 0.99 0.99 0.0 0 0 64.85 53.26
  Q 65.19 54.32 64.24 55.05
  A 1.29 1.29 0.0 0 1 62.57 54.97
  Q 61.60 54.06 60.40 53.85
  Q 59.93 53.77 60.09 53.31
  Q 60.56 51.94 62.37 51.85
  A 0.57 0.54 71.2 0 1 62.87 52.11
  Q 63.03 52.36 63.29 52.40
  A 1.01 1.00 22.1 0 0 64.27 51.99
  Q 65.40 50.43 67.60 50.39
  Q 68.15 50.38 68.60 50.05
  L 70.31 48.81
  Q 71.90 49.14 71.77 48.22
  Q 71.95 47.55 71.72 47.64
  Q 72.16 47.53 72.27 46.86
  Q 72.34 46.37 72.74 46.08
  Q 73.04 45.87 73.42 45.83
  Q 74.08 45.77 74.04 46.43
  L 73.99 47.18
  Q 73.96 47.64 74.42 47.63
  Q 74.58 47.62 74.73 47.53
  Q 75.02 47.34 74.93 47.00
  Q 74.54 45.53 75.98 44.79
  L 82.91 43.51
  Z
  M 81.15 47.88
  Q 81.73 48.18 82.36 47.99
  A 0.45 0.45 0.0 0 0 82.40 47.14
  Q 81.75 46.90 81.17 47.16
  A 0.40 0.40 0.0 0 0 81.15 47.88
  Z
  M 77.85 48.80
  Q 79.17 49.19 79.87 48.63
  Q 80.35 48.25 79.77 48.04
  Q 78.84 47.69 77.78 48.29
  L 73.40 47.97
  Q 73.15 47.95 73.14 48.21
  L 73.13 48.68
  Q 73.13 48.94 73.38 48.93
  L 77.85 48.80
  Z"
/>
<path fill="#cc003d" d="
  M 43.06 46.29
  Q 42.95 45.29 43.62 46.05
  L 44.78 47.39
  Q 45.46 48.18 44.44 47.98
  Q 43.21 47.73 43.06 46.29
  Z"
/>
<path fill="#eaa0a8" d="
  M 19.05 46.02
  Q 19.37 45.92 19.69 46.29
  Q 19.98 46.64 19.79 46.93
  Q 19.00 47.12 18.53 46.93
  A 0.45 0.44 -37.6 0 1 18.64 46.08
  L 19.05 46.02
  Z"
/>
<path fill="#0c0303" d="
  M 27.47 47.14
  Q 26.98 47.53 26.96 47.95
  L 25.74 47.81
  Q 26.27 47.50 25.78 47.08
  Q 26.49 46.71 27.47 47.14
  Z"
/>
<path fill="#43040e" fill-opacity="0.996" d="
  M 81.15 47.88
  A 0.40 0.40 0.0 0 1 81.17 47.16
  Q 81.75 46.90 82.40 47.14
  A 0.45 0.45 0.0 0 1 82.36 47.99
  Q 81.73 48.18 81.15 47.88
  Z"
/>
<path fill="#7d011c" d="
  M 70.00 47.14
  Q 69.99 47.56 70.08 47.77
  Q 70.27 48.22 70.60 47.87
  Q 70.97 47.47 71.72 47.64
  Q 71.95 47.55 71.77 48.22
  Q 71.13 48.01 70.52 48.24
  Q 70.05 48.42 70.31 48.81
  L 68.60 50.05
  Q 68.15 50.38 67.60 50.39
  Q 65.40 50.43 64.27 51.99
  A 1.01 1.00 22.1 0 1 63.29 52.40
  Q 63.03 52.36 62.87 52.11
  A 0.57 0.54 71.2 0 0 62.37 51.85
  Q 60.56 51.94 60.09 53.31
  Q 59.93 53.77 60.40 53.85
  Q 61.60 54.06 62.57 54.97
  A 1.29 1.29 0.0 0 0 64.24 55.05
  Q 65.19 54.32 64.85 53.26
  A 0.99 0.99 0.0 0 1 65.82 51.97
  L 73.20 52.14
  Q 73.33 52.14 73.34 52.27
  L 73.36 52.60
  Q 73.37 52.76 73.20 52.78
  L 70.00 53.10
  L 66.62 53.20
  Q 66.09 53.22 66.10 53.75
  Q 66.16 55.68 64.37 56.74
  Q 61.48 56.13 58.81 54.09
  Q 57.43 53.90 56.48 54.21
  Q 55.39 53.94 54.30 54.31
  Q 53.84 54.46 53.35 54.45
  L 47.49 54.27
  Q 46.75 53.51 45.73 54.43
  Q 44.57 54.49 44.07 55.79
  Q 43.88 56.25 43.45 56.48
  Q 42.25 57.12 40.72 57.16
  Q 41.08 55.38 40.84 53.71
  Q 40.76 53.18 40.23 53.16
  L 36.27 53.06
  Q 35.89 53.04 35.69 52.92
  Q 35.00 52.51 35.84 52.21
  Q 36.24 52.06 36.97 52.08
  Q 38.64 52.31 39.51 51.62
  Q 39.94 51.28 39.61 50.85
  Q 38.47 49.37 36.24 49.91
  Q 35.18 49.46 34.00 49.59
  Q 33.35 49.66 33.19 49.01
  Q 34.39 49.11 34.92 48.73
  Q 35.02 48.97 35.19 49.07
  Q 35.57 49.29 35.63 48.85
  L 35.74 48.02
  Q 42.41 48.55 47.49 52.57
  A 2.03 2.02 -25.9 0 0 48.74 53.00
  L 56.44 52.96
  Q 57.12 52.95 57.65 52.53
  Q 59.84 50.80 62.56 50.23
  C 65.22 49.67 67.56 48.33 70.00 47.14
  Z
  M 43.47 54.96
  L 44.60 53.96
  Q 45.03 53.58 44.66 53.13
  Q 43.44 51.64 42.11 50.79
  Q 41.56 50.43 40.95 50.69
  Q 40.48 50.89 40.83 51.26
  Q 42.28 52.77 42.09 55.38
  Q 42.03 56.24 42.78 55.81
  Q 43.03 55.66 43.15 55.40
  Q 43.26 55.14 43.47 54.96
  Z"
/>
<path fill="#eaa0a8" d="
  M 30.00 47.49
  L 30.57 47.42
  Q 30.89 47.41 31.18 47.92
  Q 31.11 48.72 31.58 49.01
  Q 31.79 49.72 31.25 49.71
  Q 30.08 49.69 29.74 48.79
  Q 30.10 48.25 30.00 47.49
  Z"
/>
<path fill="#cc003d" d="
  M 25.74 47.81
  L 26.96 47.95
  Q 27.54 49.65 29.74 48.79
  Q 30.08 49.69 31.25 49.71
  Q 31.79 49.72 31.58 49.01
  L 33.19 49.01
  Q 33.35 49.66 34.00 49.59
  Q 35.18 49.46 36.24 49.91
  L 36.20 50.98
  Q 35.48 50.52 35.11 50.95
  A 0.72 0.72 0.0 0 0 35.55 52.13
  Q 36.17 52.21 36.39 51.78
  Q 36.66 51.99 36.97 52.08
  Q 36.24 52.06 35.84 52.21
  Q 35.00 52.51 35.69 52.92
  Q 35.89 53.04 36.27 53.06
  Q 35.14 53.78 36.01 55.98
  Q 32.93 56.07 29.75 56.22
  Q 29.12 56.25 27.77 57.05
  Q 27.37 57.10 26.90 57.41
  Q 26.50 57.67 26.07 57.47
  Q 25.26 57.10 24.50 57.29
  Q 21.75 56.62 19.15 58.38
  Q 17.76 59.32 18.25 60.54
  Q 18.21 60.92 18.03 60.93
  Q 17.08 60.66 16.28 61.11
  Q 15.71 61.43 15.34 62.42
  Q 14.91 63.57 14.35 64.77
  Q 13.31 66.63 11.05 66.92
  Q 10.11 65.26 9.05 65.69
  Q 9.10 64.25 8.55 62.94
  Q 8.36 62.50 8.76 62.22
  L 10.77 60.79
  Q 11.32 61.04 12.92 59.40
  A 0.29 0.29 0.0 0 1 13.32 59.38
  Q 13.70 59.73 14.19 59.79
  Q 15.16 59.91 14.58 59.11
  Q 14.00 58.31 14.04 57.24
  L 16.23 56.55
  Q 18.17 56.79 19.97 55.89
  Q 20.64 55.56 19.93 55.32
  L 19.48 55.16
  Q 20.77 54.83 21.75 53.92
  L 22.26 54.06
  Q 21.62 54.14 21.73 54.57
  A 0.25 0.24 -5.8 0 0 21.97 54.76
  Q 23.04 54.74 23.96 55.20
  Q 24.50 55.47 24.77 54.94
  Q 25.50 53.48 24.02 53.11
  Q 23.42 52.78 22.69 52.72
  L 22.70 49.97
  Q 22.70 49.42 22.15 49.35
  Q 21.67 49.28 21.45 49.69
  Q 21.31 49.71 21.14 49.69
  Q 20.81 49.64 20.93 49.33
  L 21.08 48.89
  Q 21.13 48.98 21.17 49.06
  L 25.74 47.81
  Z
  M 31.6789 52.5713
  A 2.91 0.38 1.6 0 0 28.7806 52.1101
  A 2.91 0.38 1.6 0 0 25.8611 52.4087
  A 2.91 0.38 1.6 0 0 28.7594 52.8699
  A 2.91 0.38 1.6 0 0 31.6789 52.5713
  Z"
/>
<rect fill="#c5002f" x="-3.78" y="-0.55" transform="translate(53.35,48.59) rotate(0.5)" width="7.56" height="1.10" rx="0.37"/>
<path fill="#c5002f" d="
  M 84.25 47.76
  Q 84.89 48.22 85.25 47.97
  Q 85.18 48.20 85.10 48.36
  Q 84.93 48.70 85.30 48.79
  L 91.47 50.41
  Q 91.73 50.48 91.89 50.71
  Q 92.54 51.63 91.86 52.84
  A 1.35 1.34 -61.7 0 1 90.05 53.39
  Q 88.89 52.79 87.92 53.98
  L 85.37 52.28
  Q 85.08 52.08 84.90 52.39
  Q 84.84 52.51 84.84 52.69
  L 83.48 52.71
  L 84.20 48.20
  Q 84.04 48.03 84.25 47.76
  Z"
/>
<path fill="#eaa0a8" d="
  M 2.02 48.79
  Q 1.39 48.93 0.99 49.25
  Q 0.51 49.03 0.37 48.72
  A 0.40 0.39 -21.6 0 1 0.61 48.18
  Q 1.31 47.95 2.02 48.79
  Z"
/>
<path fill="#0c0303" d="
  M 77.85 48.80
  Q 77.96 48.42 77.78 48.29
  Q 78.84 47.69 79.77 48.04
  Q 80.35 48.25 79.87 48.63
  Q 79.17 49.19 77.85 48.80
  Z"
/>
<path fill="#0c0303" d="
  M 85.25 47.97
  L 87.94 48.96
  Q 88.44 49.15 88.93 48.94
  L 90.20 48.41
  Q 90.81 48.15 91.19 48.70
  Q 93.11 51.47 96.62 50.93
  Q 97.05 52.24 93.51 52.15
  Q 92.74 52.13 93.28 52.69
  Q 93.45 52.86 93.68 52.89
  A 0.53 0.52 11.5 0 1 94.12 53.55
  Q 94.04 53.82 93.73 54.13
  Q 92.61 53.98 91.80 54.21
  Q 91.17 54.27 91.02 54.51
  Q 91.07 54.32 91.05 54.18
  A 0.34 0.33 75.6 0 0 90.62 53.92
  Q 89.83 54.18 89.05 54.13
  Q 88.51 53.92 87.92 53.98
  Q 88.89 52.79 90.05 53.39
  A 1.35 1.34 -61.7 0 0 91.86 52.84
  Q 92.54 51.63 91.89 50.71
  Q 91.73 50.48 91.47 50.41
  L 85.30 48.79
  Q 84.93 48.70 85.10 48.36
  Q 85.18 48.20 85.25 47.97
  Z"
/>
<path fill="#ff278d" d="
  M 21.17 49.06
  Q 21.13 48.98 21.08 48.89
  Q 20.09 49.21 19.00 48.67
  Q 20.57 47.52 21.17 49.06
  Z"
/>
<path fill="#0c0303" d="
  M 84.20 48.20
  L 83.48 52.71
  Q 82.92 50.60 83.03 48.76
  Q 83.07 48.18 84.20 48.20
  Z"
/>
<path fill="#43040e" fill-opacity="0.996" d="
  M 2.02 48.79
  Q 3.66 49.91 6.09 50.42
  L 4.51 51.92
  Q 2.46 50.90 0.99 49.25
  Q 1.39 48.93 2.02 48.79
  Z"
/>
<path fill="#c5002f" d="
  M 19.00 48.67
  Q 20.09 49.21 21.08 48.89
  L 20.93 49.33
  Q 20.81 49.64 21.14 49.69
  Q 21.31 49.71 21.45 49.69
  Q 21.81 50.24 21.77 50.81
  A 0.91 0.90 -11.1 0 1 21.27 51.55
  L 18.70 52.85
  Q 17.62 53.34 17.24 54.01
  Q 16.97 54.50 17.42 54.84
  Q 17.75 55.08 18.20 55.08
  Q 18.28 55.64 17.75 56.01
  Q 17.39 56.27 16.91 55.75
  L 15.52 54.45
  Q 13.52 52.69 13.58 50.89
  Q 13.60 50.38 14.10 50.26
  Q 16.45 49.71 15.57 49.12
  L 19.00 48.67
  Z"
/>
<path fill="#0c0303" d="
  M 15.57 49.12
  Q 16.45 49.71 14.10 50.26
  Q 13.60 50.38 13.58 50.89
  Q 13.52 52.69 15.52 54.45
  L 13.03 53.88
  Q 13.35 52.98 12.80 52.36
  Q 12.48 52.01 11.55 51.88
  Q 10.33 51.71 9.92 51.01
  C 12.38 50.96 12.87 48.80 15.57 49.12
  Z"
/>
<path fill="#0c0303" d="
  M 22.69 52.72
  Q 22.26 52.93 21.95 53.26
  Q 21.50 53.24 21.07 53.64
  Q 20.72 53.96 20.31 53.73
  L 18.70 52.85
  L 21.27 51.55
  A 0.91 0.90 -11.1 0 0 21.77 50.81
  Q 21.81 50.24 21.45 49.69
  Q 21.67 49.28 22.15 49.35
  Q 22.70 49.42 22.70 49.97
  L 22.69 52.72
  Z"
/>
<path fill="#ff278d" d="
  M 36.24 49.91
  Q 38.47 49.37 39.61 50.85
  Q 39.94 51.28 39.51 51.62
  Q 38.64 52.31 36.97 52.08
  Q 36.66 51.99 36.39 51.78
  Q 36.36 51.37 36.20 50.98
  L 36.24 49.91
  Z"
/>
<path fill="#c5002f" d="
  M 102.30 50.03
  Q 102.15 51.30 102.72 51.81
  Q 101.33 53.09 98.80 53.65
  Q 98.97 53.40 98.76 53.16
  Q 98.41 52.74 98.17 53.23
  Q 97.85 53.92 97.09 54.00
  Q 96.10 54.09 97.08 54.29
  Q 97.35 54.35 97.47 54.44
  Q 95.48 54.84 93.42 54.39
  Q 93.69 54.24 93.73 54.13
  Q 94.04 53.82 94.12 53.55
  A 0.53 0.52 11.5 0 0 93.68 52.89
  Q 93.45 52.86 93.28 52.69
  Q 92.74 52.13 93.51 52.15
  Q 97.05 52.24 96.62 50.93
  Q 97.25 49.53 99.56 50.73
  Q 99.99 50.96 100.42 50.72
  Q 101.34 50.19 102.30 50.03
  Z"
/>
<path fill="#0c0303" d="
  M 102.30 50.03
  Q 102.75 49.95 103.20 50.02
  Q 103.75 50.11 103.64 50.66
  Q 103.52 51.28 102.72 51.81
  Q 102.15 51.30 102.30 50.03
  Z"
/>
<path fill="#0c0303" d="
  M 9.13 50.68
  Q 7.19 50.89 8.17 54.79
  Q 7.13 54.86 7.05 54.27
  Q 7.27 52.49 6.48 50.82
  Q 8.03 49.85 9.13 50.68
  Z"
/>
<path fill="#c5002f" d="
  M 6.09 50.42
  Q 5.80 50.46 6.48 50.82
  Q 7.27 52.49 7.05 54.27
  Q 5.58 53.38 4.51 51.92
  L 6.09 50.42
  Z"
/>
<path fill="#ff278d" d="
  M 43.15 55.40
  Q 43.03 55.66 42.78 55.81
  Q 42.03 56.24 42.09 55.38
  Q 42.28 52.77 40.83 51.26
  Q 40.48 50.89 40.95 50.69
  Q 41.56 50.43 42.11 50.79
  Q 43.44 51.64 44.66 53.13
  Q 45.03 53.58 44.60 53.96
  L 43.47 54.96
  Q 43.26 55.14 43.15 55.40
  Z"
/>
<path fill="#c5002f" d="
  M 9.13 50.68
  Q 9.92 50.83 9.92 51.01
  Q 10.33 51.71 11.55 51.88
  Q 12.48 52.01 12.80 52.36
  Q 13.35 52.98 13.03 53.88
  Q 10.40 54.79 8.17 54.79
  Q 7.19 50.89 9.13 50.68
  Z"
/>
<path fill="#c5002f" d="
  M 36.20 50.98
  Q 36.36 51.37 36.39 51.78
  Q 36.17 52.21 35.55 52.13
  A 0.72 0.72 0.0 0 1 35.11 50.95
  Q 35.48 50.52 36.20 50.98
  Z"
/>
<ellipse fill="#0c0303" cx="0.00" cy="0.00" transform="translate(28.77,52.49) rotate(1.6)" rx="2.91" ry="0.38"/>
<path fill="#0c0303" d="
  M 82.05 54.42
  Q 79.89 56.10 84.38 57.10
  Q 85.48 57.35 86.72 58.75
  Q 86.91 58.96 86.91 59.13
  Q 86.91 59.36 86.73 59.56
  Q 83.36 57.35 79.36 56.90
  Q 80.99 54.84 80.70 53.47
  Q 80.57 52.87 79.96 52.86
  L 75.15 52.81
  Q 74.86 52.81 74.85 52.51
  L 74.83 52.21
  Q 74.83 52.03 75.00 52.04
  C 77.31 52.09 81.48 51.21 82.05 54.42
  Z"
/>
<path fill="#ff278d" d="
  M 22.69 52.72
  Q 23.42 52.78 24.02 53.11
  Q 24.08 54.35 22.26 54.06
  L 21.75 53.92
  Q 21.91 53.61 21.95 53.26
  Q 22.26 52.93 22.69 52.72
  Z"
/>
<path fill="#0c0303" d="
  M 98.80 53.65
  Q 98.40 54.29 97.47 54.44
  Q 97.35 54.35 97.08 54.29
  Q 96.10 54.09 97.09 54.00
  Q 97.85 53.92 98.17 53.23
  Q 98.41 52.74 98.76 53.16
  Q 98.97 53.40 98.80 53.65
  Z"
/>
<path fill="#7d011c" d="
  M 22.26 54.06
  Q 24.08 54.35 24.02 53.11
  Q 25.50 53.48 24.77 54.94
  Q 24.50 55.47 23.96 55.20
  Q 23.04 54.74 21.97 54.76
  A 0.25 0.24 -5.8 0 1 21.73 54.57
  Q 21.62 54.14 22.26 54.06
  Z"
/>
<path fill="#ff278d" d="
  M 36.27 53.06
  L 40.23 53.16
  Q 40.76 53.18 40.84 53.71
  Q 41.08 55.38 40.72 57.16
  Q 40.59 57.26 40.47 57.36
  Q 39.55 55.65 36.01 55.98
  Q 35.14 53.78 36.27 53.06
  Z"
/>
<path fill="#ff278d" d="
  M 70.00 53.10
  Q 70.58 54.73 69.73 56.00
  Q 68.12 55.70 66.53 57.18
  Q 66.14 57.04 65.95 57.31
  L 64.37 56.74
  Q 66.16 55.68 66.10 53.75
  Q 66.09 53.22 66.62 53.20
  L 70.00 53.10
  Z"
/>
<path fill="#c5002f" d="
  M 86.00 54.82
  L 92.22 57.30
  Q 91.63 57.33 91.44 57.63
  Q 91.13 58.12 91.67 58.31
  L 92.44 58.58
  Q 97.63 61.63 97.64 66.28
  Q 96.77 66.63 97.19 66.37
  Q 96.06 65.86 94.45 66.73
  Q 94.27 66.78 93.97 66.72
  Q 93.72 66.67 93.56 66.49
  Q 92.30 65.19 90.69 64.16
  Q 90.18 63.82 90.32 63.23
  L 90.57 62.22
  L 91.03 60.51
  Q 91.28 59.59 90.51 60.16
  Q 89.10 61.23 90.00 62.18
  Q 89.14 62.21 88.28 61.45
  L 88.72 61.37
  Q 89.24 61.28 88.87 60.90
  Q 88.06 60.06 87.25 60.14
  Q 87.09 60.08 86.73 59.56
  Q 86.91 59.36 86.91 59.13
  Q 86.91 58.96 86.72 58.75
  Q 85.48 57.35 84.38 57.10
  Q 79.89 56.10 82.05 54.42
  Q 82.88 54.22 83.31 53.34
  Q 83.51 52.94 83.77 53.31
  Q 84.69 54.62 86.00 54.82
  Z"
/>
<path fill="#ff278d" d="
  M 47.49 54.27
  Q 46.59 55.05 45.73 54.43
  Q 46.75 53.51 47.49 54.27
  Z"
/>
<path fill="#ff278d" d="
  M 58.81 54.09
  Q 57.45 55.25 56.48 54.21
  Q 57.43 53.90 58.81 54.09
  Z"
/>
<path fill="#cc003d" d="
  M 91.02 54.51
  Q 90.56 55.01 89.05 54.13
  Q 89.83 54.18 90.62 53.92
  A 0.34 0.33 75.6 0 1 91.05 54.18
  Q 91.07 54.32 91.02 54.51
  Z"
/>
<path fill="#ff278d" d="
  M 93.73 54.13
  Q 93.69 54.24 93.42 54.39
  Q 92.31 55.05 91.80 54.21
  Q 92.61 53.98 93.73 54.13
  Z"
/>
<path fill="#43040e" fill-opacity="0.996" d="
  M 18.20 55.08
  Q 19.06 54.89 19.48 55.16
  L 19.93 55.32
  Q 20.64 55.56 19.97 55.89
  Q 18.17 56.79 16.23 56.55
  L 16.91 55.75
  Q 17.39 56.27 17.75 56.01
  Q 18.28 55.64 18.20 55.08
  Z"
/>
<path fill="#43040e" fill-opacity="0.996" d="
  M 36.01 55.98
  Q 39.55 55.65 40.47 57.36
  L 35.57 59.54
  Q 35.94 59.07 35.79 58.79
  Q 35.63 58.46 35.99 58.40
  L 37.73 58.13
  A 0.50 0.49 -12.2 0 0 38.13 57.52
  L 38.04 57.18
  A 0.76 0.76 0.0 0 0 37.26 56.63
  L 30.36 57.18
  Q 29.89 57.21 29.47 57.40
  Q 28.59 57.77 28.02 57.34
  Q 27.91 57.15 27.77 57.05
  Q 29.12 56.25 29.75 56.22
  Q 32.93 56.07 36.01 55.98
  Z"
/>
<path fill="#0c0303" d="
  M 69.73 56.00
  Q 72.45 56.13 75.25 56.08
  Q 76.65 56.05 77.31 57.23
  Q 77.12 57.59 77.67 58.02
  L 75.23 59.97
  Q 74.94 60.81 74.01 60.96
  L 69.60 58.74
  Q 70.27 57.81 71.31 58.52
  Q 73.94 60.32 75.69 57.96
  A 0.68 0.68 0.0 0 0 75.10 56.88
  Q 72.17 57.08 69.62 56.70
  C 68.71 56.57 67.72 56.90 66.98 57.45
  Q 66.74 57.64 66.53 57.18
  Q 68.12 55.70 69.73 56.00
  Z"
/>
<path fill="#cc003d" d="
  M 69.60 58.74
  L 65.95 57.31
  Q 66.14 57.04 66.53 57.18
  Q 66.74 57.64 66.98 57.45
  C 67.72 56.90 68.71 56.57 69.62 56.70
  Q 72.17 57.08 75.10 56.88
  A 0.68 0.68 0.0 0 1 75.69 57.96
  Q 73.94 60.32 71.31 58.52
  Q 70.27 57.81 69.60 58.74
  Z"
/>
<path fill="#cc003d" d="
  M 35.57 59.54
  Q 34.83 60.07 33.53 60.25
  Q 34.47 59.88 34.66 59.50
  Q 34.87 59.08 34.40 59.15
  Q 31.76 59.54 29.71 61.20
  Q 29.92 61.73 29.48 61.49
  Q 29.16 61.45 28.99 61.23
  Q 28.84 61.05 28.84 60.80
  Q 28.87 59.51 28.79 58.23
  Q 28.76 57.63 28.18 57.79
  Q 27.92 57.87 27.72 58.04
  Q 27.33 58.38 27.53 58.86
  Q 28.36 60.80 27.65 62.96
  Q 27.01 63.39 26.52 64.02
  A 1.43 1.39 63.8 0 0 26.23 64.91
  Q 26.24 65.78 25.71 66.42
  L 22.54 64.67
  Q 22.10 64.43 22.28 63.97
  L 23.34 61.27
  C 24.82 59.79 26.50 59.31 28.02 57.34
  Q 28.59 57.77 29.47 57.40
  Q 29.89 57.21 30.36 57.18
  L 37.26 56.63
  A 0.76 0.76 0.0 0 1 38.04 57.18
  L 38.13 57.52
  A 0.50 0.49 -12.2 0 1 37.73 58.13
  L 35.99 58.40
  Q 35.63 58.46 35.79 58.79
  Q 35.94 59.07 35.57 59.54
  Z"
/>
<path fill="#0c0303" d="
  M 24.50 57.29
  Q 21.01 58.09 18.25 60.54
  Q 17.76 59.32 19.15 58.38
  Q 21.75 56.62 24.50 57.29
  Z"
/>
<path fill="#43040e" fill-opacity="0.996" d="
  M 14.04 57.24
  Q 14.00 58.31 14.58 59.11
  Q 15.16 59.91 14.19 59.79
  Q 13.70 59.73 13.32 59.38
  A 0.29 0.29 0.0 0 0 12.92 59.40
  Q 11.32 61.04 10.77 60.79
  Q 10.79 60.44 11.05 60.21
  Q 12.39 60.01 12.02 58.47
  Q 12.22 58.87 12.47 58.76
  Q 12.61 58.70 12.70 58.43
  Q 13.09 57.22 14.04 57.24
  Z"
/>
<path fill="#0c0303" d="
  M 92.22 57.30
  Q 93.05 57.15 92.44 58.58
  L 91.67 58.31
  Q 91.13 58.12 91.44 57.63
  Q 91.63 57.33 92.22 57.30
  Z"
/>
<path fill="#0c0303" d="
  M 29.48 61.49
  Q 29.10 62.89 27.65 62.96
  Q 28.36 60.80 27.53 58.86
  Q 27.33 58.38 27.72 58.04
  Q 27.92 57.87 28.18 57.79
  Q 28.76 57.63 28.79 58.23
  Q 28.87 59.51 28.84 60.80
  Q 28.84 61.05 28.99 61.23
  Q 29.16 61.45 29.48 61.49
  Z"
/>
<path fill="#c5002f" d="
  M 77.67 58.02
  Q 78.51 57.92 79.51 59.15
  Q 79.15 59.20 79.25 59.50
  Q 79.80 61.09 81.29 60.83
  L 82.42 61.71
  Q 82.86 64.81 84.65 65.37
  L 85.86 67.65
  Q 85.72 68.87 83.94 69.90
  Q 83.47 70.17 83.06 69.82
  Q 81.75 68.67 81.04 67.21
  Q 80.83 66.77 80.86 66.28
  Q 80.93 65.31 80.02 65.13
  Q 79.55 65.03 79.21 64.71
  L 77.65 63.26
  Q 77.02 62.25 76.24 62.21
  Q 75.31 62.04 75.16 61.57
  Q 75.01 61.11 75.46 60.95
  Q 75.94 60.77 75.89 60.24
  Q 75.88 60.10 75.23 59.97
  L 77.67 58.02
  Z"
/>
<path fill="#eaa0a8" d="
  M 12.02 58.47
  Q 12.39 60.01 11.05 60.21
  Q 10.87 57.60 12.02 58.47
  Z"
/>
<path fill="#0c0303" d="
  M 33.53 60.25
  Q 32.06 60.92 30.48 61.58
  Q 30.12 61.72 29.71 61.20
  Q 31.76 59.54 34.40 59.15
  Q 34.87 59.08 34.66 59.50
  Q 34.47 59.88 33.53 60.25
  Z"
/>
<path fill="#0c0303" d="
  M 79.51 59.15
  Q 80.54 59.72 81.29 60.83
  Q 79.80 61.09 79.25 59.50
  Q 79.15 59.20 79.51 59.15
  Z"
/>
<path fill="#ff278d" d="
  M 75.23 59.97
  Q 75.88 60.10 75.89 60.24
  Q 75.94 60.77 75.46 60.95
  Q 75.01 61.11 75.16 61.57
  Q 75.31 62.04 76.24 62.21
  Q 76.10 62.53 75.91 62.65
  Q 75.46 62.94 75.33 62.42
  Q 75.05 61.27 74.01 60.96
  Q 74.94 60.81 75.23 59.97
  Z"
/>
<path fill="#0c0303" d="
  M 88.28 61.45
  Q 87.59 61.15 87.25 60.14
  Q 88.06 60.06 88.87 60.90
  Q 89.24 61.28 88.72 61.37
  L 88.28 61.45
  Z"
/>
<path fill="#0c0303" d="
  M 90.57 62.22
  Q 90.20 62.29 90.00 62.18
  Q 89.10 61.23 90.51 60.16
  Q 91.28 59.59 91.03 60.51
  L 90.57 62.22
  Z"
/>
<path fill="#0c0303" d="
  M 18.03 60.93
  Q 17.93 61.66 17.71 62.28
  Q 17.42 63.09 16.87 62.48
  Q 16.78 62.39 16.65 62.35
  Q 16.31 62.26 16.22 62.61
  Q 15.84 64.11 14.35 64.77
  Q 14.91 63.57 15.34 62.42
  Q 15.71 61.43 16.28 61.11
  Q 17.08 60.66 18.03 60.93
  Z"
/>
<path fill="#0c0303" d="
  M 23.34 61.27
  L 22.28 63.97
  Q 22.10 64.43 22.54 64.67
  L 25.71 66.42
  Q 25.73 66.79 25.47 66.80
  Q 23.69 67.31 22.54 65.95
  Q 22.23 65.59 21.84 65.86
  Q 20.73 66.63 19.37 66.82
  Q 21.27 63.02 23.34 61.27
  Z"
/>
<path fill="#0c0303" d="
  M 82.42 61.71
  Q 84.14 62.80 84.65 65.37
  Q 82.86 64.81 82.42 61.71
  Z"
/>
<path fill="#0c0303" d="
  M 77.65 63.26
  L 79.21 64.71
  Q 79.55 65.03 80.02 65.13
  Q 80.93 65.31 80.86 66.28
  Q 80.83 66.77 81.04 67.21
  Q 81.75 68.67 83.06 69.82
  Q 83.47 70.17 83.94 69.90
  Q 85.72 68.87 85.86 67.65
  Q 87.04 68.53 86.10 69.95
  Q 84.01 69.32 86.42 74.14
  Q 85.38 75.54 84.59 75.70
  Q 84.04 75.81 84.04 75.25
  L 84.00 72.34
  Q 84.00 71.70 83.45 71.37
  Q 81.93 70.46 81.21 68.66
  Q 80.84 67.75 80.14 68.44
  Q 80.06 68.52 79.96 68.54
  Q 78.76 68.84 79.61 67.94
  Q 80.37 67.14 79.68 66.44
  Q 79.27 66.03 78.65 65.77
  Q 76.65 64.93 77.65 63.26
  Z"
/>
<path fill="#0c0303" d="
  M 11.05 66.92
  L 10.28 67.40
  L 9.10 66.79
  Q 8.84 66.31 9.05 65.69
  Q 10.11 65.26 11.05 66.92
  Z"
/>
<path fill="#cc003d" d="
  M 25.47 66.80
  L 24.15 68.81
  Q 22.61 69.25 23.10 71.08
  L 20.69 72.17
  Q 20.23 72.38 20.12 72.89
  L 19.48 76.00
  L 18.40 76.00
  Q 16.89 68.61 19.37 66.82
  Q 20.73 66.63 21.84 65.86
  Q 22.23 65.59 22.54 65.95
  Q 23.69 67.31 25.47 66.80
  Z
  M 21.36 71.36
  Q 21.69 71.26 21.35 71.17
  Q 20.08 70.85 19.35 69.78
  Q 19.10 69.40 18.78 69.72
  L 18.46 70.04
  Q 18.11 70.39 18.51 70.69
  Q 19.93 71.78 21.36 71.36
  Z"
/>
<path fill="#0c0303" d="
  M 97.19 66.37
  Q 96.37 66.91 95.50 67.13
  Q 94.89 67.08 94.45 66.73
  Q 96.06 65.86 97.19 66.37
  Z"
/>
<path fill="#7d011c" d="
  M 97.19 66.37
  Q 96.77 66.63 97.64 66.28
  Q 96.90 68.38 97.41 70.28
  Q 97.54 70.76 97.25 71.16
  Q 96.05 72.80 96.21 70.99
  Q 97.37 70.19 97.12 69.00
  Q 97.03 68.59 96.65 68.39
  Q 96.30 68.21 96.16 68.59
  L 96.02 69.00
  L 95.50 67.13
  Q 96.37 66.91 97.19 66.37
  Z"
/>
<path fill="#7d011c" d="
  M 9.10 66.79
  L 10.28 67.40
  L 9.72 68.19
  Q 9.22 67.95 8.64 69.87
  L 9.10 66.79
  Z"
/>
<path fill="#0c0303" d="
  M 9.72 68.19
  Q 10.07 69.84 9.84 71.33
  Q 9.75 71.90 9.36 71.49
  Q 8.78 70.90 8.64 69.87
  Q 9.22 67.95 9.72 68.19
  Z"
/>
<path fill="#0c0303" d="
  M 96.21 70.99
  L 96.02 69.00
  L 96.16 68.59
  Q 96.30 68.21 96.65 68.39
  Q 97.03 68.59 97.12 69.00
  Q 97.37 70.19 96.21 70.99
  Z"
/>
<path fill="#ff278d" d="
  M 24.15 68.81
  Q 24.05 70.61 23.10 71.08
  Q 22.61 69.25 24.15 68.81
  Z"
/>
<path fill="#43040e" fill-opacity="0.996" d="
  M 21.36 71.36
  Q 19.93 71.78 18.51 70.69
  Q 18.11 70.39 18.46 70.04
  L 18.78 69.72
  Q 19.10 69.40 19.35 69.78
  Q 20.08 70.85 21.35 71.17
  Q 21.69 71.26 21.36 71.36
  Z"
/>
<path fill="#c5002f" d="
  M 86.10 69.95
  L 86.42 74.14
  Q 84.01 69.32 86.10 69.95
  Z"
/>
</svg>
